<svg xmlns="http://www.w3.org/2000/svg" width="900" height="900" version="1.1" style="background-color: white;"><g font-family="sans-serif" transform="scale(0.8) translate(0,250)"><g fill="transparent"><path stroke="#e2fcfc" stroke-linejoin="round" stroke-linecap="round" stroke-width="5" d="M 181.5 167.275 L 187.55 158.2 Q 187.55 149.125 187.55 137.025 L 196.625 73.5 Q 196.625 61.400000000000006 202.675 52.32500000000002 L 245.02500000000003 13 Q 251.075 3.9250000000000114 251.075 -5.149999999999977 L 251.075 -204.8"/><path stroke="#e2fcfc" stroke-linejoin="round" stroke-linecap="round" stroke-width="5" d="M 127.05000000000001 58.375 L 151.25 40.224999999999994 Q 160.325 31.150000000000006 169.40000000000003 31.150000000000006 L 184.52500000000003 31.150000000000006 Q 190.575 31.150000000000006 190.575 38.712500000000006 L 190.575 38.712500000000006 Q 190.575 47.787499999999994 184.52500000000003 47.787499999999994 L 148.22500000000002 47.787499999999994 L 127.05000000000001 58.375"/><path stroke="#e2fcfc" stroke-linejoin="round" stroke-linecap="round" stroke-width="5" d="M 453.75 376 L 462.825 376 Q 471.9 376 480.975 369.95 L 505.175 345.75 Q 517.275 336.675 523.325 336.675 L 598.95 336.675 Q 617.1 336.675 626.175 348.775 L 710.875 433.475"/><path stroke="#e2fcfc" stroke-linejoin="round" stroke-linecap="round" stroke-width="5" d="M 638.275 336.675 L 741.125 336.675 Q 777.425 336.675 777.425 300.375 L 777.425 164.25 Q 777.425 152.15 786.5 152.15 L 786.5 152.15 Q 795.575 152.15 795.575 140.05 L 795.575 40.224999999999994 Q 795.575 25.099999999999994 783.475 13 L 722.975 -44.474999999999966 Q 710.875 -56.57499999999999 695.75 -56.57499999999999 L 671.55 -56.57499999999999 Q 641.3 -56.57499999999999 641.3 -86.82499999999999 L 641.3 -89.84999999999997 Q 641.3 -111.02499999999998 662.475 -129.175 L 735.075 -189.675"/><path stroke="#e2fcfc" stroke-linejoin="round" stroke-linecap="round" stroke-width="6" d="M 719.95 581.7 L 746.5699999999999 558.4075 Q 753.225 551.45 760.7875 551.45 L 763.8125 551.45 Q 770.4675 551.45 777.425 557.5 L 795.575 575.65 Q 801.625 581.7 801.625 605.9"/><path stroke="#e2fcfc" stroke-linejoin="round" stroke-linecap="round" stroke-width="3" d="M 127.05000000000001 100.725 L 160.325 94.67500000000001 L 175.45 94.67500000000001 L 145.2 100.725 L 127.05000000000001 100.725"/><path stroke="#e2fcfc" stroke-linejoin="round" stroke-linecap="round" stroke-width="15" d="M 15.125 19.05000000000001 L 184.52500000000003 19.05000000000001 Q 211.75 19.05000000000001 211.75 38.712500000000006 L 211.75 38.712500000000006 Q 211.75 58.375 184.52500000000003 58.375 L 136.125 58.375 Q 108.90000000000003 58.375 108.90000000000003 70.475 L 108.90000000000003 70.475 Q 108.90000000000003 82.57500000000002 136.125 82.57500000000002 L 193.60000000000002 82.57500000000002 Q 202.675 82.57500000000002 202.675 97.70000000000002 L 202.675 97.70000000000002 Q 202.675 112.82500000000002 193.60000000000002 112.82500000000002 L 108.90000000000003 112.82500000000002 Q 90.75 112.82500000000002 90.75 135.5125 L 90.75 135.5125 Q 90.75 158.2 108.90000000000003 158.2 L 154.27500000000003 158.2 Q 181.5 158.2 181.5 170.3 L 181.5 218.7 Q 181.5 230.8 193.60000000000002 236.85 L 341.82500000000005 236.85 Q 366.025 236.85 366.025 261.05 L 366.025 348.775 Q 366.025 369.95 353.925 379.025 L 254.10000000000002 475.825 Q 214.77500000000003 512.125 248.05 536.325 L 248.05 536.325 Q 272.25 554.4749999999999 299.475 527.25 L 502.15 327.6 Q 514.25 315.5 529.375 315.5 L 601.975 315.5 Q 620.125 315.5 629.2 327.6 L 701.8 397.17499999999995 Q 710.875 409.275 710.875 427.42499999999995 L 710.875 572.625 Q 710.875 584.7249999999999 741.125 584.7249999999999 L 783.475 584.7249999999999 Q 801.625 584.7249999999999 801.625 602.875 L 801.625 602.875 Q 801.625 608.925 786.5 619.5125 L 786.5 619.5125 Q 768.35 630.0999999999999 768.35 648.25 L 768.35 651.275 Q 768.35 681.525 798.6 681.525 L 853.05 681.525 Q 865.15 681.525 880.275 699.675 L 946.825 775.3"/><path stroke="#dddddd" stroke-width="8" d="M 390.225 88.625 L 474.925 3.9250000000000114 Q 484 -5.149999999999977 484 -17.25 L 484 -213.875 Q 484 -225.97499999999997 474.925 -225.97499999999997 L 456.775 -225.97499999999997"/><path stroke="#ffffff" stroke-dasharray="10,10" stroke-width="6" d="M 390.225 88.625 L 474.925 3.9250000000000114 Q 484 -5.149999999999977 484 -17.25 L 484 -213.875 Q 484 -225.97499999999997 474.925 -225.97499999999997 L 456.775 -225.97499999999997"/><path stroke="#dddddd" stroke-width="8" d="M 317.625 315.5 L 242 315.5 Q 226.875 315.5 214.77500000000003 330.625 L 81.67500000000001 497 Q 72.60000000000002 506.075 72.60000000000002 515.15 L 72.60000000000002 621.025 Q 72.60000000000002 627.075 81.67500000000001 627.075 L 90.75 627.075"/><path stroke="#ffffff" stroke-dasharray="10,10" stroke-width="6" d="M 317.625 315.5 L 242 315.5 Q 226.875 315.5 214.77500000000003 330.625 L 81.67500000000001 497 Q 72.60000000000002 506.075 72.60000000000002 515.15 L 72.60000000000002 621.025 Q 72.60000000000002 627.075 81.67500000000001 627.075 L 90.75 627.075"/><path stroke="#dddddd" stroke-width="8" d="M 698.775 439.525 L 698.775 796.475"/><path stroke="#ffffff" stroke-dasharray="10,10" stroke-width="6" d="M 698.775 439.525 L 698.775 796.475"/><path stroke="#ed1b35" stroke-width="8" d="M 853.05 -2.125 L 659.45 191.475 Q 653.4 197.525 647.35 197.525 L 605 197.525 Q 595.925 197.525 586.85 203.575 L 242 548.425 L 157.3 636.15" transform="scale(1)"/><path stroke="#ed1b35" stroke-dasharray="2,4" stroke-width="8" d="M 172.425 621.025 Q 151.25 642.2 151.25 648.25 L 151.25 726.9" transform="scale(1)"/><path stroke="#44b85c" stroke-width="8" d="M 266.2 -68.67500000000001 Q 266.2 -53.55000000000001 272.25 -47.5 L 441.65 118.875 Q 450.725 127.95 450.725 140.05 L 450.725 161.22500000000002 Q 450.725 173.325 456.775 182.4 L 605 330.625 Q 614.075 336.675 614.075 348.775 L 614.075 354.825 Q 614.075 366.925 623.15 372.975 L 741.125 490.95 Q 750.2 500.025 750.2 512.125 L 750.2 687.575 Q 750.2 696.65 756.25 705.7249999999999 L 789.525 739 L 831.875 739" transform="scale(1)"/><path stroke="#44b85c" stroke-width="8" d="M 266.2 -117.07499999999999 L 266.2 -89.84999999999997" transform="scale(1)"/><path stroke="#44b85c" stroke-width="8" d="M 266.2 -89.84999999999997 L 266.2 -68.67500000000001" transform="scale(1)"/><path stroke="#0078bf" stroke-width="8" d="M 63.525000000000034 -41.44999999999999 L 63.525000000000034 200.55 Q 63.525000000000034 209.625 72.60000000000002 218.7 L 151.25 297.35 Q 157.3 303.4 169.40000000000003 303.4 L 435.6 303.4 Q 444.675 303.4 453.75 297.35 L 453.75 297.35 Q 465.85 288.275 471.9 288.275 L 704.825 288.275 Q 716.925 288.275 722.975 282.225 L 958.925 46.275000000000006" transform="scale(1)"/><path stroke="#19c1f3" stroke-width="8" d="M 63.525000000000034 152.15 L 148.22500000000002 236.85 Q 157.3 245.925 169.40000000000003 245.925 L 229.90000000000003 245.925 Q 238.97500000000002 245.925 251.075 255 L 263.175 264.075 Q 275.27500000000003 273.15 281.325 273.15 L 326.70000000000005 273.15 Q 338.8 261.05 350.9 261.05 L 465.85 261.05 Q 474.925 261.05 484 270.125 L 487.025 273.15"/><path stroke="#19c1f3" stroke-width="8" d="M 326.70000000000005 273.15 L 205.7 191.475"/><path stroke="#894e35" stroke-width="8" d="M 332.75 255 L 333.1735 241.69 L 334.41375 228.47075 L 336.501 215.312 L 339.405 202.33474999999999 L 343.12575000000004 189.56925 L 347.63300000000004 177.04575 L 352.8965 164.85500000000002 L 358.9465 152.997 L 365.72249999999997 141.53225 L 373.19425 130.5515 L 381.3315 120.02450000000002 L 390.13425 110.042 L 399.54200000000003 100.63425000000001 L 409.5245 91.8315 L 420.05150000000003 83.69425000000001 L 431.03225 76.2225 L 442.497 69.44649999999999 L 454.355 63.3965 L 466.54575 58.13300000000001 L 479.06925 53.62575000000004 L 491.83475 49.905 L 504.812 47.001000000000005 L 517.97075 44.91374999999999 L 531.19 43.67350000000002 L 544.5 43.25 L 557.81 43.67350000000002 L 571.02925 44.91374999999999 L 584.188 47.001000000000005 L 597.16525 49.905 L 609.93075 53.62575000000004 L 622.45425 58.13300000000001 L 634.645 63.3965 L 646.503 69.44649999999999 L 657.96775 76.2225 L 668.9485 83.69425000000001 L 679.4755 91.8315 L 689.458 100.63425000000001 L 698.8657499999999 110.042 L 707.6685 120.02450000000002 L 715.80575 130.5515 L 723.2775 141.53225 L 730.0535 152.997 L 736.1034999999999 164.85500000000002 L 741.367 177.04575 L 745.87425 189.56925 L 749.595 202.33474999999999 L 752.499 215.312 L 754.5862500000001 228.47075 L 755.8265 241.69 L 756.25 255 L 755.8265 268.31 L 754.5862500000001 281.52925 L 752.499 294.688 L 749.595 307.66525 L 745.87425 320.43075 L 741.367 332.95425 L 736.1034999999999 345.145 L 730.0535 357.003 L 723.2775 368.46775 L 715.80575 379.44849999999997 L 707.6685 389.9755 L 698.8657499999999 399.95799999999997 L 689.458 409.36575 L 679.4755 418.1685 L 668.9485 426.30575 L 657.96775 433.77750000000003 L 646.503 440.5535 L 634.645 446.6035 L 622.45425 451.86699999999996 L 609.93075 456.37424999999996 L 597.16525 460.095 L 584.188 462.999 L 571.02925 465.08625 L 557.81 466.3265 L 544.5 466.75 L 531.19 466.3265 L 517.97075 465.08625 L 504.812 462.999 L 491.83475 460.095 L 479.06925 456.37424999999996 L 466.54575 451.86699999999996 L 454.355 446.6035 L 442.497 440.5535 L 431.03225 433.77750000000003 L 420.05150000000003 426.30575 L 409.5245 418.1685 L 399.54200000000003 409.36575 L 390.13425 399.95799999999997 L 381.3315 389.9755 L 373.19425 379.44849999999997 L 365.72249999999997 368.46775 L 358.9465 357.003 L 352.8965 345.145 L 347.63300000000004 332.95425 L 343.12575000000004 320.43075 L 339.405 307.66525 L 336.501 294.688 L 334.41375 281.52925 L 333.1735 268.31 L 332.75 255"/><path stroke="#f58631" stroke-width="8" d="M 653.4 -135.22499999999997 L 653.4 140.05 Q 653.4 149.125 647.35 158.2 L 647.35 158.2 Q 638.275 170.3 638.275 176.35000000000002 L 638.275 321.55 Q 638.275 333.65 629.2 342.725 L 420.475 554.4749999999999 Q 411.4 563.55 411.4 575.65 L 411.4 763.2" transform="scale(1)"/><path stroke="#f58631" stroke-dasharray="2,4" stroke-width="8" d="M 653.4 -135.22499999999997 L 653.4 -183.625" transform="scale(1)"/><path stroke="#8e479c" stroke-width="8" d="M 226.875 -53.55000000000001 L 226.875 16.025000000000006 Q 226.875 28.125 232.925 34.17500000000001 L 363 161.22500000000002 Q 369.05 167.275 378.125 167.275 L 544.5 167.275 Q 553.575 167.275 559.625 173.325 L 623.15 236.85 Q 629.2 242.9 629.2 255 L 629.2 285.25 Q 629.2 297.35 638.275 303.4 L 822.8 487.92499999999995 Q 830.3625 497 840.95 497 L 1001.275 497 Q 1013.375 497 1022.45 509.1 L 1022.45 509.1 Q 1028.5 518.175 1028.5 527.25 L 1028.5 527.25 Q 1028.5 536.325 1019.425 545.4 L 955.9 605.9 Q 937.75 621.025 937.75 633.125 L 937.75 639.175" transform="scale(1)"/><path stroke="#ffcb31" stroke-width="8" d="M 598.95 372.975 L 816.75 372.975 L 955.9 236.85"/><path stroke="#ffcb31" stroke-width="8" d="M 251.075 221.725 L 223.85000000000002 221.725 Q 214.77500000000003 221.725 205.7 230.8 L 190.575 245.925 Q 181.5 255 181.5 264.075 L 181.5 388.1"/><path stroke="#ffcb31" stroke-dasharray="2,4" stroke-width="8" d="M 599.40375 372.975 L 480.975 372.975 Q 471.9 372.975 462.825 366.925 L 320.65 230.8 Q 311.57500000000005 221.725 302.5 221.725 L 251.075 221.725"/><path stroke="#ffcb31" stroke-width="8" d="M 181.5 388.1 L 181.5 433.475 Q 181.5 442.54999999999995 172.425 451.625 L 108.90000000000003 521.2 Q 99.82499999999999 530.275 99.82499999999999 542.375 L 99.82499999999999 572.625"/><path stroke="#ffcb31" stroke-dasharray="2,4" stroke-width="8" d="M 99.82499999999999 572.625 L 99.82499999999999 587.75 L 99.82499999999999 618"/><path stroke="#a1a2a3" stroke-width="8" d="M 544.5 -171.52499999999998 L 544.5 -159.425 Q 544.5 -150.34999999999997 538.45 -141.27499999999998 L 465.85 -68.67500000000001 Q 456.775 -59.599999999999966 456.775 -50.52499999999998 L 456.775 25.099999999999994 Q 456.775 34.17500000000001 465.85 43.25 L 529.375 109.80000000000001 Q 532.4 112.82500000000002 532.4 115.85 L 532.4 130.97500000000002 Q 532.4 134 529.375 137.025 L 490.05 179.1935 Q 487.025 182.4 487.025 191.475 L 487.025 312.475 Q 487.025 321.55 496.1 330.625 L 592.9 430.45 Q 601.975 439.525 601.975 448.6 L 601.975 639.175 Q 601.975 648.25 592.9 657.325 L 508.2 763.2"/><path stroke="#b3d445" stroke-width="8" d="M 471.9 -144.3 L 471.9 -89.84999999999997 Q 471.9 -101.94999999999999 477.95 -83.80000000000001 L 547.525 -8.175000000000011 Q 556.6 -2.125 556.6 9.974999999999994 L 556.6 118.875 Q 556.6 130.97500000000002 565.675 140.05 L 792.55 363.9 Q 798.6 369.95 798.6 382.05 L 798.6 472.79999999999995 Q 798.6 480.36249999999995 807.675 490.95 L 862.125 545.4 Q 871.2 554.4749999999999 871.2 566.575 L 871.2 575.65 Q 871.2 584.7249999999999 862.125 593.8 L 807.675 648.25 Q 798.6 657.325 798.6 669.425 L 798.6 748.075"/><path stroke="#b3d445" stroke-dasharray="2,4" stroke-width="8" d="M 471.9 -144.3 L 471.9 -207.825"/><path stroke="#acbfe1" stroke-width="8" d="M 496.1 763.2 L 477.95 787.4 Q 471.9 796.475 465.85 796.475 L 281.325 796.475"/><path stroke="#acbfe1" stroke-dasharray="2,4" stroke-width="8" d="M 281.325 796.475 L 90.75 796.475"/><path stroke="#acbfe1" stroke-width="8" d="M 420.475 763.2 L 496.1 763.2"/><path stroke="#554d26" stroke-dasharray="2,4" stroke-width="8" d="M 133.10000000000002 769.25 L 287.375 605.9 L 502.15 605.9"/><path stroke="#de62be" stroke-dasharray="2,4" stroke-width="8" d="M 865.15 345.75 L 952.875 433.475 Q 958.925 439.525 958.925 451.625 L 958.925 503.04999999999995 Q 958.925 512.125 968 521.2 L 1034.55 593.8 Q 1043.625 602.875 1043.625 611.95 L 1043.625 678.5"/><path stroke="#f76093" stroke-width="8" d="M 190.575 255 L 191.2733901410233 232.7768653755878 L 193.36580433727318 210.64143531075362 L 196.84398478584757 188.68106823524735 L 201.6942046975488 166.98243168517882 L 207.89732247023767 145.63116026584686 L 215.42885723200186 124.71151769107541 L 224.2590854559649 104.30606423283169 L 234.3531582654757 84.49533089355037 L 245.6712389666992 65.35750158705864 L 258.1686602658466 46.96810458238633 L 271.7961005505789 29.399714428194983 L 286.49977853987673 12.721665534188787 L 302.2216655341888 -3.000221460123271 L 318.899714428195 -17.7038994494211 L 336.4681045823866 -31.331339734153403 L 354.85750158705866 -43.82876103330079 L 373.9953308935504 -55.14684173452429 L 393.80606423283166 -65.24091454403509 L 414.2115176910754 -74.07114276799814 L 435.1311602658466 -81.60267752976233 L 456.4824316851788 -87.8057953024512 L 478.1810682352474 -92.65601521415243 L 500.1414353107536 -96.13419566272682 L 522.2768653755878 -98.2266098589767 L 544.5000000000001 -98.92500000000001 L 566.7231346244123 -98.2266098589767 L 588.8585646892464 -96.13419566272682 L 610.8189317647526 -92.65601521415243 L 632.5175683148212 -87.8057953024512 L 653.8688397341534 -81.60267752976233 L 674.7884823089246 -74.07114276799814 L 695.1939357671683 -65.24091454403509 L 715.0046691064497 -55.14684173452429 L 734.1424984129413 -43.82876103330079 L 752.5318954176134 -31.331339734153403 L 770.100285571805 -17.7038994494211 L 786.7783344658112 -3.000221460122873 L 802.5002214601233 12.721665534189071 L 817.2038994494214 29.399714428194983 L 830.8313397341531 46.96810458238633 L 843.3287610333008 65.35750158705864 L 854.6468417345243 84.49533089355037 L 864.7409145440351 104.30606423283169 L 873.5711427679981 124.71151769107541 L 881.1026775297623 145.63116026584686 L 887.3057953024512 166.98243168517882 L 892.1560152141524 188.68106823524735 L 895.6341956627268 210.64143531075362 L 897.7266098589766 232.77686537558785 L 898.425 255.0000000000001 L 897.7266098589766 277.22313462441224 L 895.6341956627268 299.3585646892464 L 892.1560152141524 321.3189317647526 L 887.3057953024512 343.0175683148212 L 881.1026775297623 364.3688397341534 L 873.5711427679981 385.2884823089249 L 864.7409145440351 405.69393576716834 L 854.6468417345243 425.5046691064496 L 843.3287610333008 444.64249841294134 L 830.8313397341531 463.03189541761367 L 817.2038994494211 480.600285571805 L 802.5002214601233 497.2783344658112 L 786.7783344658112 513.0002214601233 L 770.100285571805 527.7038994494214 L 752.5318954176137 541.3313397341531 L 734.1424984129413 553.8287610333008 L 715.0046691064497 565.1468417345243 L 695.193935767168 575.2409145440351 L 674.7884823089246 584.0711427679981 L 653.8688397341534 591.6026775297623 L 632.5175683148212 597.8057953024512 L 610.8189317647526 602.6560152141524 L 588.8585646892461 606.1341956627268 L 566.7231346244122 608.2266098589766 L 544.5000000000001 608.925 L 522.2768653755876 608.2266098589766 L 500.1414353107536 606.1341956627268 L 478.1810682352474 602.6560152141524 L 456.4824316851788 597.8057953024512 L 435.13116026584686 591.6026775297623 L 414.2115176910751 584.0711427679981 L 393.80606423283166 575.2409145440351 L 373.9953308935504 565.1468417345243 L 354.85750158705866 553.8287610333008 L 336.46810458238633 541.3313397341531 L 318.899714428195 527.7038994494211 L 302.2216655341888 513.0002214601233 L 286.49977853987673 497.27833446581093 L 271.7961005505786 480.600285571805 L 258.1686602658466 463.0318954176134 L 245.6712389666992 444.64249841294134 L 234.3531582654757 425.5046691064496 L 224.2590854559649 405.693935767168 L 215.42885723200186 385.2884823089246 L 207.89732247023767 364.36883973415314 L 201.6942046975488 343.0175683148212 L 196.84398478584757 321.3189317647526 L 193.36580433727318 299.35856468924607 L 191.2733901410233 277.2231346244122 L 190.575 255"/><path stroke="#fff" stroke-width="4" d="M 190.575 255 L 191.2733901410233 232.7768653755878 L 193.36580433727318 210.64143531075362 L 196.84398478584757 188.68106823524735 L 201.6942046975488 166.98243168517882 L 207.89732247023767 145.63116026584686 L 215.42885723200186 124.71151769107541 L 224.2590854559649 104.30606423283169 L 234.3531582654757 84.49533089355037 L 245.6712389666992 65.35750158705864 L 258.1686602658466 46.96810458238633 L 271.7961005505789 29.399714428194983 L 286.49977853987673 12.721665534188787 L 302.2216655341888 -3.000221460123271 L 318.899714428195 -17.7038994494211 L 336.4681045823866 -31.331339734153403 L 354.85750158705866 -43.82876103330079 L 373.9953308935504 -55.14684173452429 L 393.80606423283166 -65.24091454403509 L 414.2115176910754 -74.07114276799814 L 435.1311602658466 -81.60267752976233 L 456.4824316851788 -87.8057953024512 L 478.1810682352474 -92.65601521415243 L 500.1414353107536 -96.13419566272682 L 522.2768653755878 -98.2266098589767 L 544.5000000000001 -98.92500000000001 L 566.7231346244123 -98.2266098589767 L 588.8585646892464 -96.13419566272682 L 610.8189317647526 -92.65601521415243 L 632.5175683148212 -87.8057953024512 L 653.8688397341534 -81.60267752976233 L 674.7884823089246 -74.07114276799814 L 695.1939357671683 -65.24091454403509 L 715.0046691064497 -55.14684173452429 L 734.1424984129413 -43.82876103330079 L 752.5318954176134 -31.331339734153403 L 770.100285571805 -17.7038994494211 L 786.7783344658112 -3.000221460122873 L 802.5002214601233 12.721665534189071 L 817.2038994494214 29.399714428194983 L 830.8313397341531 46.96810458238633 L 843.3287610333008 65.35750158705864 L 854.6468417345243 84.49533089355037 L 864.7409145440351 104.30606423283169 L 873.5711427679981 124.71151769107541 L 881.1026775297623 145.63116026584686 L 887.3057953024512 166.98243168517882 L 892.1560152141524 188.68106823524735 L 895.6341956627268 210.64143531075362 L 897.7266098589766 232.77686537558785 L 898.425 255.0000000000001 L 897.7266098589766 277.22313462441224 L 895.6341956627268 299.3585646892464 L 892.1560152141524 321.3189317647526 L 887.3057953024512 343.0175683148212 L 881.1026775297623 364.3688397341534 L 873.5711427679981 385.2884823089249 L 864.7409145440351 405.69393576716834 L 854.6468417345243 425.5046691064496 L 843.3287610333008 444.64249841294134 L 830.8313397341531 463.03189541761367 L 817.2038994494211 480.600285571805 L 802.5002214601233 497.2783344658112 L 786.7783344658112 513.0002214601233 L 770.100285571805 527.7038994494214 L 752.5318954176137 541.3313397341531 L 734.1424984129413 553.8287610333008 L 715.0046691064497 565.1468417345243 L 695.193935767168 575.2409145440351 L 674.7884823089246 584.0711427679981 L 653.8688397341534 591.6026775297623 L 632.5175683148212 597.8057953024512 L 610.8189317647526 602.6560152141524 L 588.8585646892461 606.1341956627268 L 566.7231346244122 608.2266098589766 L 544.5000000000001 608.925 L 522.2768653755876 608.2266098589766 L 500.1414353107536 606.1341956627268 L 478.1810682352474 602.6560152141524 L 456.4824316851788 597.8057953024512 L 435.13116026584686 591.6026775297623 L 414.2115176910751 584.0711427679981 L 393.80606423283166 575.2409145440351 L 373.9953308935504 565.1468417345243 L 354.85750158705866 553.8287610333008 L 336.46810458238633 541.3313397341531 L 318.899714428195 527.7038994494211 L 302.2216655341888 513.0002214601233 L 286.49977853987673 497.27833446581093 L 271.7961005505786 480.600285571805 L 258.1686602658466 463.0318954176134 L 245.6712389666992 444.64249841294134 L 234.3531582654757 425.5046691064496 L 224.2590854559649 405.693935767168 L 215.42885723200186 385.2884823089246 L 207.89732247023767 364.36883973415314 L 201.6942046975488 343.0175683148212 L 196.84398478584757 321.3189317647526 L 193.36580433727318 299.35856468924607 L 191.2733901410233 277.2231346244122 L 190.575 255"/><path stroke="#2c87c5" stroke-width="4" d="M 465.85 -47.5 L 674.575 -47.5"/><path stroke="#79cdcd" stroke-width="8" d="M 605 666.4 L 726 666.4 Q 741.125 666.4 750.2 648.25" transform="scale(1)"/><path stroke="#79cdcd" stroke-width="8" d="M 229.90000000000003 221.725 Q 193.60000000000002 200.55 193.60000000000002 194.5 L 193.60000000000002 164.25 Q 193.60000000000002 158.2 205.7 158.2 L 284.35 158.2 Q 302.5 158.2 302.5 146.10000000000002 L 302.5 121.9 L 372.98249999999996 51.41750000000002" transform="scale(1)"/><path stroke="#79cdcd" stroke-dasharray="2,4" stroke-width="8" d="M 372.98249999999996 51.41750000000002 L 411.4 13 Q 417.45 6.950000000000017 429.55 6.950000000000017 L 716.925 6.950000000000017 Q 726 6.950000000000017 735.075 13 L 777.425 58.375 Q 786.5 67.45000000000002 786.5 76.525 L 786.5 197.525 Q 786.5 209.625 795.575 215.675 L 850.025 267.1 Q 856.075 276.175 856.075 288.275 L 856.075 327.6 Q 856.075 336.675 865.15 345.75 L 919.5999999999999 400.2 L 919.5999999999999 415.325 Q 919.5999999999999 421.375 916.575 424.4 L 750.2 645.2249999999999" transform="scale(1)"/><path stroke="#79cdcd" stroke-dasharray="2,4" stroke-width="8" d="M 302.5 121.9 L 296.45000000000005 127.95 Q 290.4 134 278.3 134 L 111.92500000000001 134 Q 99.82499999999999 134 93.77500000000003 143.075 L 51.42500000000001 185.425 Q 42.35000000000002 194.5 42.35000000000002 203.575 L 42.35000000000002 258.025 Q 42.35000000000002 270.125 48.400000000000034 276.175 L 202.675 430.45 Q 211.75 436.5 211.75 448.6 L 211.75 560.37375 L 393.25 657.325 L 588.3625 657.325" transform="scale(1)"/><path stroke="#ccc" stroke-linejoin="round" stroke-linecap="round" stroke-width="12" d="M 326.70000000000005 303.4 L 326.70000000000005 273.15 L 335.50275 288.275 L 326.70000000000005 303.4"/><path stroke="#ffffff" stroke-linejoin="round" stroke-linecap="round" stroke-width="6" d="M 326.70000000000005 303.4 L 326.70000000000005 273.15 L 335.50275 288.275 L 326.70000000000005 303.4"/><path stroke="#ccc" stroke-linejoin="round" stroke-linecap="round" stroke-width="12" d="M 334.6255 227.049 L 334.6255 244.01925"/><path stroke="#ffffff" stroke-linejoin="round" stroke-linecap="round" stroke-width="6" d="M 334.6255 227.049 L 334.6255 244.01925"/><path stroke="#ccc" stroke-linejoin="round" stroke-linecap="round" stroke-width="12" d="M 348.48 175.10975000000002 L 361.9715 160.19650000000001"/><path stroke="#ffffff" stroke-linejoin="round" stroke-linecap="round" stroke-width="6" d="M 348.48 175.10975000000002 L 361.9715 160.19650000000001"/><path stroke="#ccc" stroke-linejoin="round" stroke-linecap="round" stroke-width="12" d="M 402.32500000000005 98.184 L 402.32500000000005 80.21549999999999"/><path stroke="#ffffff" stroke-linejoin="round" stroke-linecap="round" stroke-width="6" d="M 402.32500000000005 98.184 L 402.32500000000005 80.21549999999999"/><path stroke="#ccc" stroke-linejoin="round" stroke-linecap="round" stroke-width="12" d="M 465.85 57.286 L 465.85 43.25"/><path stroke="#ffffff" stroke-linejoin="round" stroke-linecap="round" stroke-width="6" d="M 465.85 57.286 L 465.85 43.25"/><path stroke="#ccc" stroke-linejoin="round" stroke-linecap="round" stroke-width="12" d="M 556.6 43.61300000000003 L 556.6 28.125"/><path stroke="#ffffff" stroke-linejoin="round" stroke-linecap="round" stroke-width="6" d="M 556.6 43.61300000000003 L 556.6 28.125"/><path stroke="#ccc" stroke-linejoin="round" stroke-linecap="round" stroke-width="12" d="M 644.325 68.35749999999999 L 653.4 58.375"/><path stroke="#ffffff" stroke-linejoin="round" stroke-linecap="round" stroke-width="6" d="M 644.325 68.35749999999999 L 653.4 58.375"/><path stroke="#ccc" stroke-linejoin="round" stroke-linecap="round" stroke-width="12" d="M 711.44975 124.92500000000001 L 726 124.92500000000001"/><path stroke="#ffffff" stroke-linejoin="round" stroke-linecap="round" stroke-width="6" d="M 711.44975 124.92500000000001 L 726 124.92500000000001"/><path stroke="#ccc" stroke-linejoin="round" stroke-linecap="round" stroke-width="12" d="M 753.31575 289.57574999999997 L 732.86675 272.33325 L 732.86675 305.00325 L 753.31575 289.57574999999997"/><path stroke="#ffffff" stroke-linejoin="round" stroke-linecap="round" stroke-width="6" d="M 753.31575 289.57574999999997 L 732.86675 272.33325 L 732.86675 305.00325 L 753.31575 289.57574999999997"/><path stroke="#ccc" stroke-linejoin="round" stroke-linecap="round" stroke-width="12" d="M 726 363.59749999999997 L 726 391.125 L 738.1 372.975 L 726 363.59749999999997"/><path stroke="#ffffff" stroke-linejoin="round" stroke-linecap="round" stroke-width="6" d="M 726 363.59749999999997 L 726 391.125 L 738.1 372.975 L 726 363.59749999999997"/><path stroke="#ccc" stroke-linejoin="round" stroke-linecap="round" stroke-width="12" d="M 662.86825 430.45 L 680.625 430.45"/><path stroke="#ffffff" stroke-linejoin="round" stroke-linecap="round" stroke-width="6" d="M 662.86825 430.45 L 680.625 430.45"/><path stroke="#ccc" stroke-linejoin="round" stroke-linecap="round" stroke-width="12" d="M 601.975 458.67325 L 601.975 469.775"/><path stroke="#ffffff" stroke-linejoin="round" stroke-linecap="round" stroke-width="6" d="M 601.975 458.67325 L 601.975 469.775"/><path stroke="#ccc" stroke-linejoin="round" stroke-linecap="round" stroke-width="12" d="M 509.8335 463.81575 L 520.542 452.98625000000004"/><path stroke="#ffffff" stroke-linejoin="round" stroke-linecap="round" stroke-width="6" d="M 509.8335 463.81575 L 520.542 452.98625000000004"/><path stroke="#ccc" stroke-linejoin="round" stroke-linecap="round" stroke-width="12" d="M 384.175 393.182 L 384.175 406.25"/><path stroke="#ffffff" stroke-linejoin="round" stroke-linecap="round" stroke-width="6" d="M 384.175 393.182 L 384.175 406.25"/><path stroke="#ccc" stroke-linejoin="round" stroke-linecap="round" stroke-width="12" d="M 775.51925 75.436 L 775.51925 56.34825000000001"/><path stroke="#ffffff" stroke-linejoin="round" stroke-linecap="round" stroke-width="6" d="M 775.51925 75.436 L 775.51925 56.34825000000001"/><path stroke="#ccc" stroke-linejoin="round" stroke-linecap="round" stroke-width="12" d="M 638.275 182.4 L 650.375 197.525 L 638.275 211.68200000000002 L 638.275 182.4"/><path stroke="#ffffff" stroke-linejoin="round" stroke-linecap="round" stroke-width="6" d="M 638.275 182.4 L 650.375 197.525 L 638.275 211.68200000000002 L 638.275 182.4"/><path stroke="#ccc" stroke-linejoin="round" stroke-linecap="round" stroke-width="12" d="M 579.2875 192.9875 L 579.2875 211.1375"/><path stroke="#ffffff" stroke-linejoin="round" stroke-linecap="round" stroke-width="6" d="M 579.2875 192.9875 L 579.2875 211.1375"/><path stroke="#ccc" stroke-linejoin="round" stroke-linecap="round" stroke-width="12" d="M 532.4 258.025 L 547.525 273.15 L 562.65 288.275"/><path stroke="#ffffff" stroke-linejoin="round" stroke-linecap="round" stroke-width="6" d="M 532.4 258.025 L 547.525 273.15 L 562.65 288.275"/><path stroke="#ccc" stroke-linejoin="round" stroke-linecap="round" stroke-width="12" d="M 502.15 288.275 L 487.025 273.15 L 471.9 288.275 L 502.15 288.275 L 487.025 303.4 L 471.9 288.275"/><path stroke="#ffffff" stroke-linejoin="round" stroke-linecap="round" stroke-width="6" d="M 502.15 288.275 L 487.025 273.15 L 471.9 288.275 L 502.15 288.275 L 487.025 303.4 L 471.9 288.275"/><path stroke="#ccc" stroke-linejoin="round" stroke-linecap="round" stroke-width="12" d="M 454.26425 336.16075 L 454.26425 358.72725"/><path stroke="#ffffff" stroke-linejoin="round" stroke-linecap="round" stroke-width="6" d="M 454.26425 336.16075 L 454.26425 358.72725"/><path stroke="#ccc" stroke-linejoin="round" stroke-linecap="round" stroke-width="12" d="M 211.75 580.1875 L 211.75 560.37375"/><path stroke="#ffffff" stroke-linejoin="round" stroke-linecap="round" stroke-width="6" d="M 211.75 580.1875 L 211.75 560.37375"/><path stroke="#ccc" stroke-linejoin="round" stroke-linecap="round" stroke-width="12" d="M 166.375 732.95 L 151.25 726.9"/><path stroke="#ffffff" stroke-linejoin="round" stroke-linecap="round" stroke-width="6" d="M 166.375 732.95 L 151.25 726.9"/><path stroke="#ccc" stroke-linejoin="round" stroke-linecap="round" stroke-width="12" d="M 372.98249999999996 51.41750000000002 L 384.62874999999997 39.77124999999998"/><path stroke="#ffffff" stroke-linejoin="round" stroke-linecap="round" stroke-width="6" d="M 372.98249999999996 51.41750000000002 L 384.62874999999997 39.77124999999998"/><path stroke="#ccc" stroke-linejoin="round" stroke-linecap="round" stroke-width="12" d="M 456.775 182.4 L 488.38625 182.4 L 473.4125 167.275 L 456.775 182.4"/><path stroke="#ffffff" stroke-linejoin="round" stroke-linecap="round" stroke-width="6" d="M 456.775 182.4 L 488.38625 182.4 L 473.4125 167.275 L 456.775 182.4"/><path stroke="#ccc" stroke-linejoin="round" stroke-linecap="round" stroke-width="12" d="M 614.3775 357.7895 L 599.3735 372.975"/><path stroke="#ffffff" stroke-linejoin="round" stroke-linecap="round" stroke-width="6" d="M 614.3775 357.7895 L 599.3735 372.975"/><path stroke="#ccc" stroke-linejoin="round" stroke-linecap="round" stroke-width="12" d="M 789.525 739 L 798.6 748.075"/><path stroke="#ffffff" stroke-linejoin="round" stroke-linecap="round" stroke-width="6" d="M 789.525 739 L 798.6 748.075"/><path stroke="#ccc" stroke-linejoin="round" stroke-linecap="round" stroke-width="12" d="M 63.525000000000034 152.15 L 84.09500000000003 152.15"/><path stroke="#ffffff" stroke-linejoin="round" stroke-linecap="round" stroke-width="6" d="M 63.525000000000034 152.15 L 84.09500000000003 152.15"/><path stroke="#ccc" stroke-linejoin="round" stroke-linecap="round" stroke-width="12" d="M 417.45 303.4 L 417.45 323.21375"/><path stroke="#ffffff" stroke-linejoin="round" stroke-linecap="round" stroke-width="6" d="M 417.45 303.4 L 417.45 323.21375"/><path stroke="#ccc" stroke-linejoin="round" stroke-linecap="round" stroke-width="12" d="M 786.5 218.7 L 786.5 197.525"/><path stroke="#ffffff" stroke-linejoin="round" stroke-linecap="round" stroke-width="6" d="M 786.5 218.7 L 786.5 197.525"/><path stroke="#ccc" stroke-linejoin="round" stroke-linecap="round" stroke-width="12" d="M 251.075 221.725 L 229.90000000000003 221.725"/><path stroke="#ffffff" stroke-linejoin="round" stroke-linecap="round" stroke-width="6" d="M 251.075 221.725 L 229.90000000000003 221.725"/><path stroke="#ccc" stroke-linejoin="round" stroke-linecap="round" stroke-width="12" d="M 653.4 22.075000000000017 L 668.525 6.950000000000017"/><path stroke="#ffffff" stroke-linejoin="round" stroke-linecap="round" stroke-width="6" d="M 653.4 22.075000000000017 L 668.525 6.950000000000017"/><path stroke="#ccc" stroke-linejoin="round" stroke-linecap="round" stroke-width="12" d="M 411.4 657.325 L 399.3 657.325"/><path stroke="#ffffff" stroke-linejoin="round" stroke-linecap="round" stroke-width="6" d="M 411.4 657.325 L 399.3 657.325"/><path stroke="#ccc" stroke-linejoin="round" stroke-linecap="round" stroke-width="12" d="M 411.4 763.2 L 423.5 763.2"/><path stroke="#ffffff" stroke-linejoin="round" stroke-linecap="round" stroke-width="6" d="M 411.4 763.2 L 423.5 763.2"/><path stroke="#ccc" stroke-linejoin="round" stroke-linecap="round" stroke-width="12" d="M 302.5 102.1165 L 302.5 121.9"/><path stroke="#ffffff" stroke-linejoin="round" stroke-linecap="round" stroke-width="6" d="M 302.5 102.1165 L 302.5 121.9"/><path stroke="#ccc" stroke-linejoin="round" stroke-linecap="round" stroke-width="12" d="M 786.5 451.625 L 798.6 439.525"/><path stroke="#ffffff" stroke-linejoin="round" stroke-linecap="round" stroke-width="6" d="M 786.5 451.625 L 798.6 439.525"/><path stroke="#ccc" stroke-linejoin="round" stroke-linecap="round" stroke-width="12" d="M 862.125 497 L 871.2 484.9"/><path stroke="#ffffff" stroke-linejoin="round" stroke-linecap="round" stroke-width="6" d="M 862.125 497 L 871.2 484.9"/><path stroke="#ccc" stroke-linejoin="round" stroke-linecap="round" stroke-width="12" d="M 989.175 575.65 L 1017.9124999999999 575.65"/><path stroke="#ffffff" stroke-linejoin="round" stroke-linecap="round" stroke-width="6" d="M 989.175 575.65 L 1017.9124999999999 575.65"/><path stroke="#ccc" stroke-linejoin="round" stroke-linecap="round" stroke-width="12" d="M 181.5 430.45 L 202.675 430.45"/><path stroke="#ffffff" stroke-linejoin="round" stroke-linecap="round" stroke-width="6" d="M 181.5 430.45 L 202.675 430.45"/><path stroke="#ccc" stroke-linejoin="round" stroke-linecap="round" stroke-width="12" d="M 798.6 390.88300000000004 L 816.75 372.975"/><path stroke="#ffffff" stroke-linejoin="round" stroke-linecap="round" stroke-width="6" d="M 798.6 390.88300000000004 L 816.75 372.975"/><path stroke="#ccc" stroke-linejoin="round" stroke-linecap="round" stroke-width="12" d="M 844.6405 345.75 L 865.15 345.75"/><path stroke="#ffffff" stroke-linejoin="round" stroke-linecap="round" stroke-width="6" d="M 844.6405 345.75 L 865.15 345.75"/><path stroke="#ccc" stroke-linejoin="round" stroke-linecap="round" stroke-width="12" d="M 456.775 6.950000000000017 L 438.625 6.950000000000017"/><path stroke="#ffffff" stroke-linejoin="round" stroke-linecap="round" stroke-width="6" d="M 456.775 6.950000000000017 L 438.625 6.950000000000017"/><path stroke="#ccc" stroke-linejoin="round" stroke-linecap="round" stroke-width="12" d="M 532.4 123.4125 L 557.11425 123.4125"/><path stroke="#ffffff" stroke-linejoin="round" stroke-linecap="round" stroke-width="6" d="M 532.4 123.4125 L 557.11425 123.4125"/><path stroke="#ccc" stroke-linejoin="round" stroke-linecap="round" stroke-width="12" d="M 592.9 657.325 L 605 666.4"/><path stroke="#ffffff" stroke-linejoin="round" stroke-linecap="round" stroke-width="6" d="M 592.9 657.325 L 605 666.4"/><path stroke="#ccc" stroke-linejoin="round" stroke-linecap="round" stroke-width="12" d="M 508.2 763.2 L 496.1 763.2"/><path stroke="#ffffff" stroke-linejoin="round" stroke-linecap="round" stroke-width="6" d="M 508.2 763.2 L 496.1 763.2"/><path stroke="#ccc" stroke-linejoin="round" stroke-linecap="round" stroke-width="12" d="M 547.525 -8.175000000000011 L 562.65 6.950000000000017"/><path stroke="#ffffff" stroke-linejoin="round" stroke-linecap="round" stroke-width="6" d="M 547.525 -8.175000000000011 L 562.65 6.950000000000017"/><path stroke="#ccc" stroke-linejoin="round" stroke-linecap="round" stroke-width="12" d="M 842.4625 524.2249999999999 L 830.665 539.3499999999999"/><path stroke="#ffffff" stroke-linejoin="round" stroke-linecap="round" stroke-width="6" d="M 842.4625 524.2249999999999 L 830.665 539.3499999999999"/><path stroke="#ccc" stroke-linejoin="round" stroke-linecap="round" stroke-width="12" d="M 278.3 596.825 L 287.375 605.9"/><path stroke="#ffffff" stroke-linejoin="round" stroke-linecap="round" stroke-width="6" d="M 278.3 596.825 L 287.375 605.9"/><path stroke="#ccc" stroke-dasharray="2,4" stroke-linejoin="round" stroke-linecap="round" stroke-width="5" d="M 471.9 -100.64925 L 453.75 -86.82499999999999"/><path stroke="#ccc" stroke-dasharray="2,4" stroke-linejoin="round" stroke-linecap="round" stroke-width="5" d="M 296.45000000000005 -23.30000000000001 L 296.45000000000005 2.7150000000000034"/><path stroke="#ccc" stroke-dasharray="2,4" stroke-linejoin="round" stroke-linecap="round" stroke-width="5" d="M 247.14250000000004 47.847999999999985 L 263.175 40.224999999999994"/><path stroke="#ccc" stroke-dasharray="2,4" stroke-linejoin="round" stroke-linecap="round" stroke-width="5" d="M 220.22000000000003 109.80000000000001 L 299.475 109.80000000000001"/><path stroke="#ccc" stroke-dasharray="2,4" stroke-linejoin="round" stroke-linecap="round" stroke-width="5" d="M 193.60000000000002 170.3 L 200.86 170.3"/><path stroke="#ccc" stroke-dasharray="2,4" stroke-linejoin="round" stroke-linecap="round" stroke-width="5" d="M 196.01999999999998 194.5 L 205.7 191.475"/><path stroke="#ccc" stroke-dasharray="2,4" stroke-linejoin="round" stroke-linecap="round" stroke-width="5" d="M 181.5 245.925 L 190.8775 239.875"/><path stroke="#ccc" stroke-dasharray="2,4" stroke-linejoin="round" stroke-linecap="round" stroke-width="5" d="M 272.25 518.175 L 298.265 509.1"/><path stroke="#ccc" stroke-dasharray="2,4" stroke-linejoin="round" stroke-linecap="round" stroke-width="5" d="M 396.275 576.255 L 414.304 563.55"/><path stroke="#ccc" stroke-dasharray="2,4" stroke-linejoin="round" stroke-linecap="round" stroke-width="5" d="M 762.3 533.905 L 750.2 527.25"/><path stroke="#ccc" stroke-dasharray="2,4" stroke-linejoin="round" stroke-linecap="round" stroke-width="5" d="M 798.6 472.79999999999995 L 796.785 503.04999999999995"/><path stroke="#ccc" stroke-dasharray="2,4" stroke-linejoin="round" stroke-linecap="round" stroke-width="5" d="M 874.2249999999999 316.86125 L 894.4925000000001 306.425"/><path stroke="#ccc" stroke-dasharray="2,4" stroke-linejoin="round" stroke-linecap="round" stroke-width="5" d="M 867.2674999999999 109.80000000000001 L 887.68625 117.51374999999999"/><path stroke="#ccc" stroke-dasharray="2,4" stroke-linejoin="round" stroke-linecap="round" stroke-width="5" d="M 829.4549999999999 45.065 L 814.2090000000001 36.74625"/><path stroke="#ccc" stroke-dasharray="2,4" stroke-linejoin="round" stroke-linecap="round" stroke-width="5" d="M 853.05 -2.125 L 808.28 19.05000000000001"/><path stroke="#ccc" stroke-dasharray="2,4" stroke-linejoin="round" stroke-linecap="round" stroke-width="5" d="M 673.365 -74.72499999999997 L 653.4 -65.64999999999998"/><path stroke="#ccc" stroke-dasharray="2,4" stroke-linejoin="round" stroke-linecap="round" stroke-width="5" d="M 511.225 -114.05000000000001 L 511.225 -97.11000000000001"/></g><circle cx="853.05" cy="-2.125" r="6" fill="white" stroke="#ed1b35"/><text x="863.05" y="1.875" font-size="8.712" text-anchor="start">Бульвар Рокоссовского</text><circle cx="814.2090000000001" cy="36.74625" r="6" fill="white" stroke="#ed1b35"/><text x="824.2090000000001" y="36.74625" font-size="8.712">Черкизовская</text><circle cx="799.53775" cy="51.387249999999995" r="6" fill="white" stroke="#ed1b35"/><text x="809.53775" y="65.38725" font-size="8.712" text-anchor="start">Преображенская площадь</text><circle cx="775.51925" cy="75.436" r="4" fill="#ed1b35" stroke="#ed1b35"/><text x="785.51925" y="79.436" fill="#ed1b35" font-size="8.712" text-anchor="start">Сокольники</text><circle cx="751.7729999999999" cy="99.15199999999999" r="6" fill="white" stroke="#ed1b35"/><text x="761.7729999999999" y="103.15199999999999" font-size="8.712" text-anchor="start">Красносельская</text><circle cx="726" cy="124.92500000000001" r="4" fill="#ed1b35" stroke="#ed1b35"/><text x="736" y="128.925" fill="#ed1b35" font-size="8.712" text-anchor="start">Комсомольская</text><circle cx="692.39225" cy="158.53275000000002" r="6" fill="white" stroke="#ed1b35"/><text x="702.39225" y="162.53275000000002" font-size="8.712" text-anchor="start">Красные ворота</text><circle cx="650.375" cy="197.525" r="4" fill="#ed1b35" stroke="#ed1b35" transform="scale(1)"/><text x="660.375" y="201.525" fill="#ed1b35" font-size="8.712" text-anchor="start">Чистые пруды</text><circle cx="579.2875" cy="211.1375" r="4" fill="#ed1b35" stroke="#ed1b35"/><text x="569.2875" y="215.1375" fill="#ed1b35" font-size="8.712" text-anchor="end">Лубянка</text><circle cx="532.4" cy="258.025" r="4" fill="#ed1b35" stroke="#ed1b35"/><text x="542.4" y="262.025" fill="#ed1b35" font-size="8.712" text-anchor="start">Охотный ряд</text><circle cx="502.15" cy="288.275" r="4" fill="#ed1b35" stroke="#ed1b35"/><text x="512.15" y="302.275" fill="#ed1b35" font-size="8.712" text-anchor="start">Библиотека имени Ленина</text><circle cx="454.26425" cy="336.16075" r="4" fill="#ed1b35" stroke="#ed1b35"/><text x="464.26425" y="340.16075" fill="#ed1b35" font-size="8.712" text-anchor="start">Кропоткинская</text><circle cx="384.175" cy="406.25" r="4" fill="#ed1b35" stroke="#ed1b35"/><text x="374.175" y="410.25" fill="#ed1b35" font-size="8.712" text-anchor="end">Парк Культуры</text><circle cx="322.46500000000003" cy="467.355" r="6" fill="white" stroke="#ed1b35"/><text x="332.46500000000003" y="471.355" font-size="8.712" text-anchor="start">Фрунзенская</text><circle cx="272.25" cy="518.175" r="6" fill="white" stroke="#ed1b35"/><text x="282.25" y="522.175" font-size="8.712" text-anchor="start">Спортивная</text><circle cx="251.075" cy="539.3499999999999" r="6" fill="white" stroke="#ed1b35"/><text x="261.075" y="543.3499999999999" font-size="8.712" text-anchor="start">Воробьёвы горы</text><circle cx="232.925" cy="557.5" r="6" fill="white" stroke="#ed1b35"/><text x="242.925" y="561.5" font-size="8.712" text-anchor="start">Университет</text><circle cx="211.75" cy="580.1875" r="4" fill="#ed1b35" stroke="#ed1b35"/><text x="201.75" y="584.1875" fill="#ed1b35" font-size="8.712" text-anchor="end">Проспект Вернадского</text><circle cx="202.675" cy="589.2625" r="6" fill="white" stroke="#ed1b35"/><text x="212.675" y="593.2625" font-size="8.712" text-anchor="start">Юго-Западная</text><circle cx="187.55" cy="604.3875" r="6" fill="white" stroke="#ed1b35"/><text x="197.55" y="608.3875" font-size="8.712" text-anchor="start">Тропарёво</text><circle cx="172.425" cy="620.42" r="6" fill="white" stroke="#ed1b35"/><text x="182.425" y="624.42" font-size="8.712" text-anchor="start">Румянцево</text><circle cx="157.3" cy="636.15" r="6" fill="white" stroke="#ed1b35"/><text x="167.3" y="640.15" font-size="8.712" text-anchor="start">Саларьево</text><circle cx="151.25" cy="660.3499999999999" r="6" fill="white" stroke="#ed1b35"/><text x="141.25" y="664.3499999999999" font-size="8.712" text-anchor="end">Филатов Луг</text><circle cx="151.25" cy="684.55" r="6" fill="white" stroke="#ed1b35"/><text x="141.25" y="688.55" font-size="8.712" text-anchor="end">Прокшино</text><circle cx="151.25" cy="708.75" r="6" fill="white" stroke="#ed1b35"/><text x="141.25" y="712.75" font-size="8.712" text-anchor="end">Ольховая</text><circle cx="151.25" cy="726.9" r="6" fill="white" stroke="#ed1b35"/><circle cx="266.2" cy="-117.07499999999999" r="6" fill="white" stroke="#44b85c"/><text x="276.2" y="-113.07499999999999" font-size="8.712" text-anchor="start">Ховрино</text><circle cx="266.2" cy="-92.875" r="6" fill="white" stroke="#44b85c"/><text x="276.2" y="-88.875" font-size="8.712" text-anchor="start">Беломорская</text><circle cx="266.2" cy="-68.67500000000001" r="6" fill="white" stroke="#44b85c"/><text x="276.2" y="-64.67500000000001" font-size="8.712" text-anchor="start">Речной вокзал</text><circle cx="275.27500000000003" cy="-44.68674999999996" r="6" fill="white" stroke="#44b85c"/><text x="285.27500000000003" y="-40.68674999999996" font-size="8.712" text-anchor="start">Водный стадион</text><circle cx="296.45000000000005" cy="-23.30000000000001" r="6" fill="white" stroke="#44b85c"/><text x="306.45000000000005" y="-19.30000000000001" font-size="8.712" text-anchor="start">Войковская</text><circle cx="332.75" cy="11.911000000000001" r="6" fill="white" stroke="#44b85c"/><text x="342.75" y="15.911000000000001" font-size="8.712" text-anchor="start">Сокол</text><circle cx="350.9" cy="29.758500000000026" r="6" fill="white" stroke="#44b85c"/><text x="340.9" y="33.758500000000026" font-size="8.712" text-anchor="end">Аэропорт</text><circle cx="372.98249999999996" cy="51.41750000000002" r="4" fill="#44b85c" stroke="#44b85c"/><text x="362.98249999999996" y="55.41750000000002" fill="#44b85c" font-size="8.712" text-anchor="end">Динамо</text><circle cx="402.32500000000005" cy="80.21549999999999" r="4" fill="#44b85c" stroke="#44b85c"/><text x="412.32500000000005" y="80.21549999999999" fill="#44b85c" font-size="8.712">Белорусская</text><circle cx="450.725" cy="140.05" r="6" fill="white" stroke="#44b85c" transform="scale(1)"/><text x="460.725" y="144.05" font-size="8.712" text-anchor="start">Маяковская</text><circle cx="456.775" cy="182.4" r="4" fill="#44b85c" stroke="#44b85c"/><text x="446.775" y="196.4" fill="#44b85c" font-size="8.712" text-anchor="end">Тверская</text><circle cx="547.525" cy="273.15" r="4" fill="#44b85c" stroke="#44b85c" transform="scale(1)"/><text x="557.525" y="273.15" fill="#44b85c" font-size="8.712">Театральная</text><circle cx="614.3775" cy="357.7895" r="4" fill="#44b85c" stroke="#44b85c"/><text x="604.3775" y="361.7895" fill="#44b85c" font-size="8.712" text-anchor="end">Новокузнецкая</text><circle cx="680.625" cy="430.45" r="4" fill="#44b85c" stroke="#44b85c"/><text x="690.625" y="430.45" fill="#44b85c" font-size="8.712">Павелецкая</text><circle cx="750.2" cy="527.25" r="6" fill="white" stroke="#44b85c"/><text x="740.2" y="531.25" font-size="8.712" text-anchor="end">Автозаводская</text><circle cx="750.2" cy="569.5999999999999" r="6" fill="white" stroke="#44b85c"/><text x="740.2" y="573.5999999999999" font-size="8.712" text-anchor="end">Технопарк</text><circle cx="750.2" cy="596.825" r="6" fill="white" stroke="#44b85c"/><text x="740.2" y="600.825" font-size="8.712" text-anchor="end">Коломенская</text><circle cx="750.2" cy="648.25" r="4" fill="#44b85c" stroke="#44b85c"/><text x="760.2" y="648.25" fill="#44b85c" font-size="8.712">Каширская</text><circle cx="750.2" cy="675.4749999999999" r="6" fill="white" stroke="#44b85c"/><text x="740.2" y="679.4749999999999" font-size="8.712" text-anchor="end">Кантемировская</text><circle cx="750.2" cy="693.625" r="6" fill="white" stroke="#44b85c"/><text x="740.2" y="697.625" font-size="8.712" text-anchor="end">Царицыно</text><circle cx="760.7875" cy="710.2625" r="6" fill="white" stroke="#44b85c"/><text x="750.7875" y="714.2625" font-size="8.712" text-anchor="end">Орехово</text><circle cx="774.4" cy="723.875" r="6" fill="white" stroke="#44b85c"/><text x="764.4" y="727.875" font-size="8.712" text-anchor="end">Домодедовская</text><circle cx="789.525" cy="739" r="4" fill="#44b85c" stroke="#44b85c"/><text x="779.525" y="743" fill="#44b85c" font-size="8.712" text-anchor="end">Красногвардейская</text><circle cx="831.875" cy="739" r="6" fill="white" stroke="#44b85c"/><text x="841.875" y="753" font-size="8.712" text-anchor="start">Алма-Атинская</text><circle cx="63.525000000000034" cy="-41.44999999999999" r="6" fill="white" stroke="#0078bf"/><text x="73.52500000000003" y="-37.44999999999999" font-size="8.712" text-anchor="start">Пятницкое шоссе</text><circle cx="63.525000000000034" cy="-17.25" r="6" fill="white" stroke="#0078bf"/><text x="73.52500000000003" y="-13.25" font-size="8.712" text-anchor="start">Митино</text><circle cx="63.525000000000034" cy="6.950000000000017" r="6" fill="white" stroke="#0078bf" transform="scale(1)"/><text x="73.52500000000003" y="10.950000000000017" font-size="8.712" text-anchor="start">Волоколамская</text><circle cx="63.525000000000034" cy="31.150000000000006" r="6" fill="white" stroke="#0078bf"/><text x="73.52500000000003" y="35.150000000000006" font-size="8.712" text-anchor="start">Мякинино</text><circle cx="63.525000000000034" cy="55.349999999999994" r="6" fill="white" stroke="#0078bf"/><text x="73.52500000000003" y="59.349999999999994" font-size="8.712" text-anchor="start">Строгино</text><circle cx="63.525000000000034" cy="79.55000000000001" r="6" fill="white" stroke="#0078bf"/><text x="73.52500000000003" y="83.55000000000001" font-size="8.712" text-anchor="start">Крылатское</text><circle cx="63.525000000000034" cy="103.75" r="6" fill="white" stroke="#0078bf"/><text x="73.52500000000003" y="107.75" font-size="8.712" text-anchor="start">Молодёжная</text><circle cx="63.525000000000034" cy="152.15" r="4" fill="#0078bf" stroke="#0078bf"/><text x="23.525000000000034" y="144.15" fill="#0078bf" font-size="8.712" text-anchor="center">Кунцевская</text><circle cx="117.97500000000002" cy="264.075" r="6" fill="white" stroke="#0078bf"/><text x="107.97500000000002" y="278.075" font-size="8.712" text-anchor="end">Славянский бульвар</text><circle cx="181.5" cy="303.4" r="4" fill="#0078bf" stroke="#0078bf"/><text x="171.5" y="317.4" fill="#0078bf" font-size="8.712" text-anchor="end">Парк Победы</text><circle cx="326.70000000000005" cy="303.4" r="4" fill="#0078bf" stroke="#0078bf"/><text x="316.70000000000005" y="295.4" fill="#0078bf" font-size="8.712" text-anchor="end">Киевская</text><circle cx="417.45" cy="303.4" r="4" fill="#0078bf" stroke="#0078bf"/><text x="407.45" y="295.4" fill="#0078bf" font-size="8.712" text-anchor="end">Смоленская</text><circle cx="471.9" cy="288.275" r="4" fill="#0078bf" stroke="#0078bf"/><text x="461.9" y="288.275" fill="#0078bf" font-size="8.712" text-anchor="end">Арбатская</text><circle cx="562.65" cy="288.275" r="4" fill="#0078bf" stroke="#0078bf" transform="scale(1)"/><text x="572.65" y="280.275" fill="#0078bf" font-size="8.712" text-anchor="start">Площадь Революции</text><circle cx="732.86675" cy="272.33325" r="4" fill="#0078bf" stroke="#0078bf"/><text x="722.86675" y="272.33325" fill="#0078bf" font-size="8.712" text-anchor="end">Курская</text><circle cx="768.35" cy="236.85" r="6" fill="white" stroke="#0078bf"/><text x="778.35" y="240.85" font-size="8.712" text-anchor="start">Бауманская</text><circle cx="786.5" cy="218.7" r="4" fill="#0078bf" stroke="#0078bf"/><text x="776.5" y="222.7" fill="#0078bf" font-size="8.712" text-anchor="end">Электрозаводская</text><circle cx="848.815" cy="156.385" r="6" fill="white" stroke="#0078bf"/><text x="858.815" y="160.385" font-size="8.712" text-anchor="start">Семёновская</text><circle cx="887.68625" cy="117.51374999999999" r="6" fill="white" stroke="#0078bf"/><text x="897.68625" y="121.51374999999999" font-size="8.712" text-anchor="start">Партизанская</text><circle cx="911.4325" cy="93.76750000000001" r="6" fill="white" stroke="#0078bf"/><text x="921.4325" y="97.76750000000001" font-size="8.712" text-anchor="start">Измайловская</text><circle cx="935.17875" cy="70.02125000000001" r="6" fill="white" stroke="#0078bf"/><text x="945.17875" y="74.02125000000001" font-size="8.712" text-anchor="start">Первомайская</text><circle cx="958.925" cy="46.275000000000006" r="6" fill="white" stroke="#0078bf"/><text x="968.925" y="50.275000000000006" font-size="8.712" text-anchor="start">Щёлковская</text><circle cx="205.7" cy="191.475" r="6" fill="white" stroke="#19c1f3"/><text x="215.7" y="191.475" font-size="8.712">Международная</text><circle cx="251.075" cy="221.725" r="4" fill="#19c1f3" stroke="#19c1f3"/><text x="261.075" y="213.725" fill="#19c1f3" font-size="8.712" text-anchor="start">Выставочная</text><circle cx="63.525000000000034" cy="152.15" r="3" fill="#19c1f3" stroke="#19c1f3"/><circle cx="84.66975000000002" cy="173.29475" r="6" fill="white" stroke="#19c1f3"/><text x="94.66975000000002" y="173.29475" font-size="8.712">Пионерская</text><circle cx="106.05650000000003" cy="194.6815" r="6" fill="white" stroke="#19c1f3"/><text x="116.05650000000003" y="194.6815" font-size="8.712">Филёвский парк</text><circle cx="127.41300000000001" cy="216.038" r="6" fill="white" stroke="#19c1f3"/><text x="137.413" y="216.038" font-size="8.712">Багратионовская</text><circle cx="147.98299999999995" cy="236.608" r="6" fill="white" stroke="#19c1f3"/><text x="157.98299999999995" y="236.608" font-size="8.712">Фили</text><circle cx="181.5" cy="245.925" r="6" fill="white" stroke="#19c1f3"/><text x="171.5" y="259.925" font-size="8.712" text-anchor="end">Кутузовская</text><circle cx="263.175" cy="264.075" r="6" fill="white" stroke="#19c1f3"/><text x="253.175" y="278.075" font-size="8.712" text-anchor="end">Студенческая</text><circle cx="326.70000000000005" cy="273.15" r="4" fill="#19c1f3" stroke="#19c1f3"/><circle cx="384.62874999999997" cy="261.05" r="6" fill="white" stroke="#19c1f3"/><text x="344.62874999999997" y="253.05" font-size="8.712" text-anchor="center">Смоленская-2</text><circle cx="445.5825" cy="261.05" r="6" fill="white" stroke="#19c1f3"/><text x="455.5825" y="253.05" font-size="8.712" text-anchor="start">Арбатская-2</text><circle cx="487.025" cy="273.15" r="4" fill="#19c1f3" stroke="#19c1f3"/><text x="477.025" y="277.15" fill="#19c1f3" font-size="8.712" text-anchor="end">Александровский сад</text><circle cx="711.44975" cy="124.92500000000001" r="4" fill="#894e35" stroke="#894e35"/><circle cx="753.31575" cy="289.57574999999997" r="4" fill="#894e35" stroke="#894e35"/><text x="763.31575" y="289.57574999999997" fill="#894e35" font-size="8.712">Курская</text><circle cx="726" cy="363.8395" r="4" fill="#894e35" stroke="#894e35"/><text x="736" y="363.8395" fill="#894e35" font-size="8.712">Таганская</text><circle cx="662.86825" cy="430.45" r="4" fill="#894e35" stroke="#894e35"/><circle cx="601.975" cy="458.67325" r="4" fill="#894e35" stroke="#894e35"/><text x="611.975" y="458.67325" fill="#894e35" font-size="8.712">Добрынинская</text><circle cx="509.8335" cy="463.81575" r="4" fill="#894e35" stroke="#894e35"/><circle cx="384.175" cy="393.182" r="4" fill="#894e35" stroke="#894e35"/><circle cx="335.50275" cy="288.275" r="4" fill="#894e35" stroke="#894e35"/><circle cx="334.6255" cy="227.049" r="4" fill="#894e35" stroke="#894e35"/><text x="344.6255" y="227.049" fill="#894e35" font-size="8.712">Российская</text><circle cx="348.48" cy="175.10975000000002" r="4" fill="#894e35" stroke="#894e35"/><text x="358.48" y="179.10975000000002" fill="#894e35" font-size="8.712" text-anchor="start">Краснопресненская</text><circle cx="402.32500000000005" cy="98.184" r="4" fill="#894e35" stroke="#894e35"/><text x="412.32500000000005" y="102.184" fill="#894e35" font-size="8.712" text-anchor="start">Белорусская</text><circle cx="465.85" cy="58.375" r="4" fill="#894e35" stroke="#894e35"/><text x="475.85" y="62.375" fill="#894e35" font-size="8.712" text-anchor="start">Новослободская</text><circle cx="556.6" cy="43.61300000000003" r="4" fill="#894e35" stroke="#894e35"/><text x="566.6" y="43.61300000000003" fill="#894e35" font-size="8.712">Суворовская</text><circle cx="644.325" cy="68.35749999999999" r="4" fill="#894e35" stroke="#894e35"/><circle cx="653.4" cy="-183.625" r="6" fill="white" stroke="#f58631"/><text x="663.4" y="-179.625" font-size="8.712" text-anchor="start">Мытищи</text><circle cx="653.4" cy="-159.425" r="6" fill="white" stroke="#f58631"/><text x="663.4" y="-155.425" font-size="8.712" text-anchor="start">Челобитьево</text><circle cx="653.4" cy="-135.22499999999997" r="6" fill="white" stroke="#f58631"/><text x="663.4" y="-131.22499999999997" font-size="8.712" text-anchor="start">Медведково</text><circle cx="653.4" cy="-111.02499999999998" r="6" fill="white" stroke="#f58631"/><text x="663.4" y="-107.02499999999998" font-size="8.712" text-anchor="start">Бабушкинская</text><circle cx="653.4" cy="-86.82499999999999" r="6" fill="white" stroke="#f58631"/><text x="663.4" y="-82.82499999999999" font-size="8.712" text-anchor="start">Свиблово</text><circle cx="653.4" cy="-65.64999999999998" r="6" fill="white" stroke="#f58631"/><text x="663.4" y="-61.64999999999998" font-size="8.712" text-anchor="start">Ботанический сад</text><circle cx="653.4" cy="-41.44999999999999" r="6" fill="white" stroke="#f58631"/><text x="663.4" y="-37.44999999999999" font-size="8.712" text-anchor="start">ВДНХ</text><circle cx="653.4" cy="-17.25" r="6" fill="white" stroke="#f58631"/><text x="663.4" y="-13.25" font-size="8.712" text-anchor="start">Алексеевская</text><circle cx="653.4" cy="22.075000000000017" r="4" fill="#f58631" stroke="#f58631" transform="scale(1)"/><text x="663.4" y="26.075000000000017" fill="#f58631" font-size="8.712" text-anchor="start">Рижская</text><circle cx="653.4" cy="58.375" r="4" fill="#f58631" stroke="#f58631"/><text x="663.4" y="72.375" fill="#f58631" font-size="8.712" text-anchor="start">Проспект Мира</text><circle cx="653.4" cy="106.775" r="6" fill="white" stroke="#f58631"/><text x="643.4" y="110.775" font-size="8.712" text-anchor="end">Сухаревская</text><circle cx="638.275" cy="182.4" r="4" fill="#f58631" stroke="#f58631"/><text x="648.275" y="186.4" fill="#f58631" font-size="8.712" text-anchor="start">Тургеневская</text><circle cx="638.275" cy="303.4" r="4" fill="#f58631" stroke="#f58631"/><text x="648.275" y="307.4" fill="#f58631" font-size="8.712" text-anchor="start">Китай-город</text><circle cx="599.3735" cy="372.975" r="4" fill="#f58631" stroke="#f58631"/><text x="609.3735" y="386.975" fill="#f58631" font-size="8.712" text-anchor="start">Третьяковская</text><circle cx="520.542" cy="452.98625000000004" r="4" fill="#f58631" stroke="#f58631"/><text x="510.54200000000003" y="444.98625000000004" fill="#f58631" font-size="8.712" text-anchor="end">Октябрьская</text><circle cx="445.00775" cy="529.7607499999999" r="6" fill="white" stroke="#f58631"/><text x="455.00775" y="533.7607499999999" font-size="8.712" text-anchor="start">Шаболовская</text><circle cx="414.304" cy="563.55" r="6" fill="white" stroke="#f58631"/><text x="424.304" y="567.55" font-size="8.712" text-anchor="start">Ленинский проспект</text><circle cx="411.4" cy="593.8" r="6" fill="white" stroke="#f58631"/><text x="421.4" y="597.8" font-size="8.712" text-anchor="start">Академическая</text><circle cx="411.4" cy="614.9749999999999" r="6" fill="white" stroke="#f58631"/><text x="421.4" y="618.9749999999999" font-size="8.712" text-anchor="start">Профсоюзная</text><circle cx="411.4" cy="636.15" r="6" fill="white" stroke="#f58631"/><text x="421.4" y="640.15" font-size="8.712" text-anchor="start">Новые Черёмушки</text><circle cx="411.4" cy="657.325" r="4" fill="#f58631" stroke="#f58631"/><text x="421.4" y="649.325" fill="#f58631" font-size="8.712" text-anchor="start">Калужская</text><circle cx="411.4" cy="678.5" r="6" fill="white" stroke="#f58631"/><text x="421.4" y="682.5" font-size="8.712" text-anchor="start">Беляево</text><circle cx="411.4" cy="699.675" r="6" fill="white" stroke="#f58631"/><text x="421.4" y="703.675" font-size="8.712" text-anchor="start">Коньково</text><circle cx="411.4" cy="720.8499999999999" r="6" fill="white" stroke="#f58631"/><text x="421.4" y="724.8499999999999" font-size="8.712" text-anchor="start">Тёплый Стан</text><circle cx="411.4" cy="742.025" r="6" fill="white" stroke="#f58631"/><text x="421.4" y="746.025" font-size="8.712" text-anchor="start">Ясенево</text><circle cx="411.4" cy="763.2" r="4" fill="#f58631" stroke="#f58631"/><text x="401.4" y="767.2" fill="#f58631" font-size="8.712" text-anchor="end">Новоясеневская</text><circle cx="226.875" cy="-53.55000000000001" r="6" fill="white" stroke="#8e479c"/><text x="216.875" y="-49.55000000000001" font-size="8.712" text-anchor="end">Планерная</text><circle cx="226.875" cy="-29.349999999999966" r="6" fill="white" stroke="#8e479c"/><text x="216.875" y="-25.349999999999966" font-size="8.712" text-anchor="end">Сходненская</text><circle cx="226.875" cy="-5.149999999999977" r="6" fill="white" stroke="#8e479c"/><text x="216.875" y="-1.1499999999999773" font-size="8.712" text-anchor="end">Тушинская</text><circle cx="226.875" cy="16.025000000000006" r="6" fill="white" stroke="#8e479c"/><text x="216.875" y="20.025000000000006" font-size="8.712" text-anchor="end">Спартак</text><circle cx="232.925" cy="34.17500000000001" r="6" fill="white" stroke="#8e479c"/><text x="222.925" y="38.17500000000001" font-size="8.712" text-anchor="end">Щукинская</text><circle cx="247.14250000000004" cy="47.847999999999985" r="6" fill="white" stroke="#8e479c"/><text x="237.14250000000004" y="51.847999999999985" font-size="8.712" text-anchor="end">Октябрьское поле</text><circle cx="302.5" cy="102.1165" r="4" fill="#8e479c" stroke="#8e479c" transform="scale(1)"/><text x="292.5" y="106.1165" fill="#8e479c" font-size="8.712" text-anchor="end">Полежаевская</text><circle cx="326.70000000000005" cy="125.83249999999998" r="6" fill="white" stroke="#8e479c"/><text x="336.70000000000005" y="125.83249999999998" font-size="8.712">Беговая</text><circle cx="341.82500000000005" cy="140.65500000000003" r="6" fill="white" stroke="#8e479c"/><text x="351.82500000000005" y="140.65500000000003" font-size="8.712">Улица 1905 года</text><circle cx="361.9715" cy="160.19650000000001" r="4" fill="#8e479c" stroke="#8e479c"/><text x="371.9715" y="160.19650000000001" fill="#8e479c" font-size="8.712">Баррикадная</text><circle cx="473.4125" cy="167.275" r="4" fill="#8e479c" stroke="#8e479c"/><text x="483.4125" y="159.275" fill="#8e479c" font-size="8.712" text-anchor="start">Пушкинская</text><circle cx="579.2875" cy="192.9875" r="4" fill="#8e479c" stroke="#8e479c"/><text x="569.2875" y="196.9875" fill="#8e479c" font-size="8.712" text-anchor="end">Кузнецкий мост</text><circle cx="638.275" cy="303.4" r="3" fill="#8e479c" stroke="#8e479c"/><circle cx="726" cy="391.125" r="4" fill="#8e479c" stroke="#8e479c"/><circle cx="786.5" cy="451.625" r="4" fill="#8e479c" stroke="#8e479c"/><text x="796.5" y="455.625" fill="#8e479c" font-size="8.712" text-anchor="start">Пролетарская</text><circle cx="822.8" cy="487.92499999999995" r="6" fill="white" stroke="#8e479c"/><text x="832.8" y="479.92499999999995" font-size="8.712" text-anchor="start">Волгоградский проспект</text><circle cx="862.125" cy="497" r="4" fill="#8e479c" stroke="#8e479c"/><text x="872.125" y="511" fill="#8e479c" font-size="8.712" text-anchor="start">Текстильщики</text><circle cx="925.65" cy="497" r="6" fill="white" stroke="#8e479c"/><text x="885.65" y="489" font-size="8.712" text-anchor="center">Кузьминки</text><circle cx="974.05" cy="497" r="6" fill="white" stroke="#8e479c"/><text x="984.05" y="489" font-size="8.712" text-anchor="start">Рязанский проспект</text><circle cx="1028.5" cy="527.25" r="6" fill="white" stroke="#8e479c"/><text x="1018.5" y="531.25" font-size="8.712" text-anchor="end">Выхино</text><circle cx="989.175" cy="575.65" r="4" fill="#8e479c" stroke="#8e479c"/><text x="979.175" y="579.65" fill="#8e479c" font-size="8.712" text-anchor="end">Лермонтовский проспект</text><circle cx="952.875" cy="608.925" r="6" fill="white" stroke="#8e479c"/><text x="942.875" y="612.925" font-size="8.712" text-anchor="end">Жулебино</text><circle cx="937.75" cy="639.175" r="6" fill="white" stroke="#8e479c"/><text x="927.75" y="653.175" font-size="8.712" text-anchor="end">Котельники</text><circle cx="99.82499999999999" cy="618" r="6" fill="white" stroke="#ffcb31"/><text x="109.82499999999999" y="622" font-size="8.712" text-anchor="start">Внуково</text><circle cx="99.82499999999999" cy="593.8" r="6" fill="white" stroke="#ffcb31"/><text x="109.82499999999999" y="597.8" font-size="8.712" text-anchor="start">Пыхтино</text><circle cx="99.82499999999999" cy="569.5999999999999" r="6" fill="white" stroke="#ffcb31"/><text x="109.82499999999999" y="573.5999999999999" font-size="8.712" text-anchor="start">Рассказовка</text><circle cx="99.82499999999999" cy="545.4" r="6" fill="white" stroke="#ffcb31"/><text x="109.82499999999999" y="549.4" font-size="8.712" text-anchor="start">Новопеределкино</text><circle cx="110.71499999999997" cy="518.175" r="6" fill="white" stroke="#ffcb31"/><text x="120.71499999999997" y="522.175" font-size="8.712" text-anchor="start">Боровское шоссе</text><circle cx="130.075" cy="497" r="6" fill="white" stroke="#ffcb31"/><text x="140.075" y="501" font-size="8.712" text-anchor="start">Солнцево</text><circle cx="150.34249999999997" cy="475.825" r="6" fill="white" stroke="#ffcb31"/><text x="160.34249999999997" y="479.825" font-size="8.712" text-anchor="start">Говорово</text><circle cx="169.40000000000003" cy="454.65" r="6" fill="white" stroke="#ffcb31"/><text x="179.40000000000003" y="458.65" font-size="8.712" text-anchor="start">Озёрная</text><circle cx="181.5" cy="430.45" r="4" fill="#ffcb31" stroke="#ffcb31"/><circle cx="181.5" cy="388.1" r="6" fill="white" stroke="#ffcb31"/><text x="191.5" y="392.1" font-size="8.712" text-anchor="start">Раменки</text><circle cx="181.5" cy="360.875" r="6" fill="white" stroke="#ffcb31"/><text x="191.5" y="364.875" font-size="8.712" text-anchor="start">Ломоносовский проспект</text><circle cx="181.5" cy="330.625" r="6" fill="white" stroke="#ffcb31"/><text x="191.5" y="334.625" font-size="8.712" text-anchor="start">Минская</text><circle cx="181.5" cy="303.4" r="3" fill="#ffcb31" stroke="#ffcb31"/><circle cx="229.90000000000003" cy="221.725" r="4" fill="#ffcb31" stroke="#ffcb31"/><text x="239.90000000000003" y="235.725" fill="#ffcb31" font-size="8.712" text-anchor="start">Деловой центр</text><circle cx="334.6255" cy="244.01925" r="4" fill="#ffcb31" stroke="#ffcb31"/><text x="344.6255" y="244.01925" fill="#ffcb31" font-size="8.712">Дорогомиловская</text><circle cx="417.45" cy="323.21375" r="4" fill="#ffcb31" stroke="#ffcb31"/><text x="407.45" y="337.21375" fill="#ffcb31" font-size="8.712" text-anchor="end">Плющиха</text><circle cx="454.26425" cy="358.72725" r="4" fill="#ffcb31" stroke="#ffcb31"/><text x="464.26425" y="362.72725" fill="#ffcb31" font-size="8.712" text-anchor="start">Волхонка</text><circle cx="599.3735" cy="372.975" r="3" fill="#ffcb31" stroke="#ffcb31"/><circle cx="738.1" cy="372.975" r="4" fill="#ffcb31" stroke="#ffcb31"/><text x="748.1" y="386.975" fill="#ffcb31" font-size="8.712" text-anchor="start">Марксистская</text><circle cx="816.75" cy="372.975" r="4" fill="#ffcb31" stroke="#ffcb31"/><text x="826.75" y="376.975" fill="#ffcb31" font-size="8.712" text-anchor="start">Площадь Ильича</text><circle cx="844.6405" cy="345.75" r="4" fill="#ffcb31" stroke="#ffcb31"/><circle cx="874.2249999999999" cy="316.86125" r="6" fill="white" stroke="#ffcb31"/><text x="884.2249999999999" y="320.86125" font-size="8.712" text-anchor="start">Шоссе Энтузиастов</text><circle cx="907.5" cy="284.161" r="6" fill="white" stroke="#ffcb31"/><text x="917.5" y="288.161" font-size="8.712" text-anchor="start">Перово</text><circle cx="931.7" cy="260.5055" r="6" fill="white" stroke="#ffcb31"/><text x="941.7" y="264.5055" font-size="8.712" text-anchor="start">Новогиреево</text><circle cx="955.9" cy="236.85" r="6" fill="white" stroke="#ffcb31"/><text x="965.9" y="240.85" font-size="8.712" text-anchor="start">Новокосино</text><circle cx="544.5" cy="-171.52499999999998" r="6" fill="white" stroke="#a1a2a3"/><text x="554.5" y="-167.52499999999998" font-size="8.712" text-anchor="start">Алтуфьево</text><circle cx="542.9875" cy="-150.34999999999997" r="6" fill="white" stroke="#a1a2a3"/><text x="552.9875" y="-146.34999999999997" font-size="8.712" text-anchor="start">Бибирево</text><circle cx="529.375" cy="-132.2" r="6" fill="white" stroke="#a1a2a3"/><text x="539.375" y="-128.2" font-size="8.712" text-anchor="start">Отрадное</text><circle cx="511.225" cy="-114.05000000000001" r="6" fill="white" stroke="#a1a2a3"/><text x="521.225" y="-110.05000000000001" font-size="8.712" text-anchor="start">Владыкино</text><circle cx="479.402" cy="-82.22699999999998" r="4" fill="#a1a2a3" stroke="#a1a2a3"/><text x="489.402" y="-78.22699999999998" fill="#a1a2a3" font-size="8.712" text-anchor="start">Петровско-Разумовская</text><circle cx="456.775" cy="-50.52499999999998" r="6" fill="white" stroke="#a1a2a3"/><text x="446.775" y="-46.52499999999998" font-size="8.712" text-anchor="end">Тимирязевская</text><circle cx="456.775" cy="-20.274999999999977" r="6" fill="white" stroke="#a1a2a3"/><text x="466.775" y="-16.274999999999977" font-size="8.712" text-anchor="start">Дмитровская</text><circle cx="456.775" cy="6.950000000000017" r="4" fill="#a1a2a3" stroke="#a1a2a3"/><text x="466.775" y="20.950000000000017" fill="#a1a2a3" font-size="8.712" text-anchor="start">Савёловская</text><circle cx="465.85" cy="43.25" r="4" fill="#a1a2a3" stroke="#a1a2a3"/><text x="475.85" y="35.25" fill="#a1a2a3" font-size="8.712" text-anchor="start">Менделеевская</text><circle cx="532.4" cy="123.4125" r="4" fill="#a1a2a3" stroke="#a1a2a3"/><text x="522.4" y="127.4125" fill="#a1a2a3" font-size="8.712" text-anchor="end">Цветной бульвар</text><circle cx="488.38625" cy="182.4" r="4" fill="#a1a2a3" stroke="#a1a2a3"/><text x="498.38625" y="186.4" fill="#a1a2a3" font-size="8.712" text-anchor="start">Чеховская</text><circle cx="487.025" cy="303.4" r="4" fill="#a1a2a3" stroke="#a1a2a3"/><text x="497.025" y="317.4" fill="#a1a2a3" font-size="8.712" text-anchor="start">Боровицкая</text><circle cx="562.65" cy="399.26225" r="6" fill="white" stroke="#a1a2a3"/><text x="552.65" y="403.26225" font-size="8.712" text-anchor="end">Полянка</text><circle cx="601.975" cy="469.775" r="4" fill="#a1a2a3" stroke="#a1a2a3"/><text x="611.975" y="473.775" fill="#a1a2a3" font-size="8.712" text-anchor="start">Серпуховская</text><circle cx="601.975" cy="554.4749999999999" r="6" fill="white" stroke="#a1a2a3"/><text x="611.975" y="558.4749999999999" font-size="8.712" text-anchor="start">Тульская</text><circle cx="601.975" cy="608.925" r="6" fill="white" stroke="#a1a2a3"/><text x="611.975" y="612.925" font-size="8.712" text-anchor="start">Нагатинская</text><circle cx="601.975" cy="627.075" r="6" fill="white" stroke="#a1a2a3"/><text x="611.975" y="631.075" font-size="8.712" text-anchor="start">Нагорная</text><circle cx="601.37" cy="645.2249999999999" r="6" fill="white" stroke="#a1a2a3"/><text x="611.37" y="649.2249999999999" font-size="8.712" text-anchor="start">Нахимовский проспект</text><circle cx="592.9" cy="657.325" r="4" fill="#a1a2a3" stroke="#a1a2a3"/><text x="582.9" y="649.325" fill="#a1a2a3" font-size="8.712" text-anchor="end">Севастопольская</text><circle cx="578.38" cy="675.4749999999999" r="6" fill="white" stroke="#a1a2a3"/><text x="588.38" y="679.4749999999999" font-size="8.712" text-anchor="start">Чертановская</text><circle cx="563.5575" cy="693.625" r="6" fill="white" stroke="#a1a2a3"/><text x="573.5575" y="697.625" font-size="8.712" text-anchor="start">Южная</text><circle cx="549.0375" cy="711.775" r="6" fill="white" stroke="#a1a2a3"/><text x="559.0375" y="715.775" font-size="8.712" text-anchor="start">Пражская</text><circle cx="534.5175" cy="729.925" r="6" fill="white" stroke="#a1a2a3"/><text x="544.5175" y="733.925" font-size="8.712" text-anchor="start">Улица Академика Янгеля</text><circle cx="520.3" cy="748.075" r="6" fill="white" stroke="#a1a2a3"/><text x="530.3" y="752.075" font-size="8.712" text-anchor="start">Аннино</text><circle cx="508.2" cy="763.2" r="4" fill="#a1a2a3" stroke="#a1a2a3"/><text x="518.2" y="767.2" fill="#a1a2a3" font-size="8.712" text-anchor="start">Бульвар Дмитрия Донского</text><circle cx="471.9" cy="-207.825" r="6" fill="white" stroke="#b3d445"/><text x="461.9" y="-203.825" font-size="8.712" text-anchor="end">Физтех</text><circle cx="471.9" cy="-186.64999999999998" r="6" fill="white" stroke="#b3d445"/><text x="461.9" y="-182.64999999999998" font-size="8.712" text-anchor="end">Лианозово</text><circle cx="471.9" cy="-165.47499999999997" r="6" fill="white" stroke="#b3d445"/><text x="461.9" y="-161.47499999999997" font-size="8.712" text-anchor="end">Улица 800-летия Москвы</text><circle cx="471.9" cy="-144.3" r="6" fill="white" stroke="#b3d445"/><text x="461.9" y="-140.3" font-size="8.712" text-anchor="end">Селигерская</text><circle cx="471.9" cy="-123.125" r="6" fill="white" stroke="#b3d445"/><text x="461.9" y="-119.125" font-size="8.712" text-anchor="end">Верхние Лихоборы</text><circle cx="471.9" cy="-100.64925" r="6" fill="white" stroke="#b3d445"/><text x="461.9" y="-96.64925" font-size="8.712" text-anchor="end">Окружная</text><circle cx="479.402" cy="-82.22699999999998" r="3" fill="#b3d445" stroke="#b3d445"/><circle cx="502.54325" cy="-57.05899999999997" r="6" fill="white" stroke="#b3d445"/><text x="512.54325" y="-53.05899999999997" font-size="8.712" text-anchor="start">Фонвизинская</text><circle cx="526.2895" cy="-31.255749999999978" r="6" fill="white" stroke="#b3d445"/><text x="536.2895" y="-27.255749999999978" font-size="8.712" text-anchor="start">Бутырская</text><circle cx="547.525" cy="-8.175000000000011" r="4" fill="#b3d445" stroke="#b3d445"/><text x="557.525" y="-4.175000000000011" fill="#b3d445" font-size="8.712" text-anchor="start">Марьина Роща</text><circle cx="556.6" cy="28.125" r="4" fill="#b3d445" stroke="#b3d445"/><text x="566.6" y="32.125" fill="#b3d445" font-size="8.712" text-anchor="start">Достоевская</text><circle cx="557.11425" cy="123.4125" r="4" fill="#b3d445" stroke="#b3d445"/><text x="567.11425" y="127.4125" fill="#b3d445" font-size="8.712" text-anchor="start">Трубная</text><circle cx="638.275" cy="211.68200000000002" r="4" fill="#b3d445" stroke="#b3d445"/><text x="648.275" y="215.68200000000002" fill="#b3d445" font-size="8.712" text-anchor="start">Сретенский бульвар</text><circle cx="732.86675" cy="305.00325" r="4" fill="#b3d445" stroke="#b3d445"/><text x="742.86675" y="309.00325" fill="#b3d445" font-size="8.712" text-anchor="start">Чкаловская</text><circle cx="798.6" cy="390.88300000000004" r="4" fill="#b3d445" stroke="#b3d445"/><text x="808.6" y="394.88300000000004" fill="#b3d445" font-size="8.712" text-anchor="start">Римская</text><circle cx="798.6" cy="439.525" r="4" fill="#b3d445" stroke="#b3d445"/><text x="808.6" y="443.525" fill="#b3d445" font-size="8.712" text-anchor="start">Крестьянская застава</text><circle cx="798.6" cy="472.79999999999995" r="6" fill="white" stroke="#b3d445"/><text x="788.6" y="476.79999999999995" font-size="8.712" text-anchor="end">Дубровка</text><circle cx="822.8" cy="506.075" r="6" fill="white" stroke="#b3d445"/><text x="812.8" y="520.075" font-size="8.712" text-anchor="end">Кожуховская</text><circle cx="842.4625" cy="524.2249999999999" r="4" fill="#b3d445" stroke="#b3d445"/><text x="852.4625" y="528.2249999999999" fill="#b3d445" font-size="8.712" text-anchor="start">Печатники</text><circle cx="871.2" cy="575.65" r="6" fill="white" stroke="#b3d445"/><text x="861.2" y="579.65" font-size="8.712" text-anchor="end">Волжская</text><circle cx="843.9749999999999" cy="611.95" r="6" fill="white" stroke="#b3d445"/><text x="853.9749999999999" y="615.95" font-size="8.712" text-anchor="start">Люблино</text><circle cx="819.775" cy="636.15" r="6" fill="white" stroke="#b3d445"/><text x="829.775" y="640.15" font-size="8.712" text-anchor="start">Братиславская</text><circle cx="798.6" cy="669.425" r="6" fill="white" stroke="#b3d445"/><text x="808.6" y="673.425" font-size="8.712" text-anchor="start">Марьино</text><circle cx="798.6" cy="693.625" r="6" fill="white" stroke="#b3d445"/><text x="808.6" y="697.625" font-size="8.712" text-anchor="start">Борисово</text><circle cx="798.6" cy="717.825" r="6" fill="white" stroke="#b3d445"/><text x="808.6" y="721.825" font-size="8.712" text-anchor="start">Шипиловская</text><circle cx="798.6" cy="748.075" r="4" fill="#b3d445" stroke="#b3d445"/><text x="788.6" y="762.075" fill="#b3d445" font-size="8.712" text-anchor="end">Зябликово</text><circle cx="605" cy="666.4" r="4" fill="#79cdcd" stroke="#79cdcd"/><text x="615" y="658.4" fill="#79cdcd" font-size="8.712" text-anchor="start">Каховская</text><circle cx="671.55" cy="666.4" r="6" fill="white" stroke="#79cdcd"/><text x="681.55" y="658.4" font-size="8.712" text-anchor="start">Варшавская</text><circle cx="750.2" cy="648.25" r="3" fill="#79cdcd" stroke="#79cdcd"/><circle cx="423.5" cy="763.2" r="4" fill="#acbfe1" stroke="#acbfe1"/><text x="383.5" y="755.2" fill="#acbfe1" font-size="8.712" text-anchor="center">Битцевский парк</text><circle cx="459.8" cy="763.2" r="6" fill="white" stroke="#acbfe1"/><text x="419.8" y="777.2" font-size="8.712" text-anchor="center">Лесопарковая</text><circle cx="496.1" cy="763.2" r="4" fill="#acbfe1" stroke="#acbfe1"/><text x="506.1" y="777.2" fill="#acbfe1" font-size="8.712" text-anchor="start">Улица Старокачаловская</text><circle cx="459.8" cy="796.475" r="6" fill="white" stroke="#acbfe1"/><text x="469.8" y="810.475" font-size="8.712" text-anchor="start">Улица Скобелевская</text><circle cx="408.375" cy="796.475" r="6" fill="white" stroke="#acbfe1"/><text x="368.375" y="810.475" font-size="8.712" text-anchor="center">Б-р Адм Ушакова</text><circle cx="344.85" cy="796.475" r="6" fill="white" stroke="#acbfe1"/><text x="304.85" y="788.475" font-size="8.712" text-anchor="center">Улица Горчакова</text><circle cx="281.325" cy="796.475" r="6" fill="white" stroke="#acbfe1"/><text x="241.325" y="810.475" font-size="8.712" text-anchor="center">Бунинская аллея</text><circle cx="217.8" cy="796.475" r="6" fill="white" stroke="#acbfe1"/><text x="177.8" y="788.475" font-size="8.712" text-anchor="center">Потапово</text><circle cx="154.27500000000003" cy="796.475" r="6" fill="white" stroke="#acbfe1"/><text x="114.27500000000003" y="810.475" font-size="8.712" text-anchor="center">Чечёрский проезд</text><circle cx="90.75" cy="796.475" r="6" fill="white" stroke="#acbfe1"/><text x="50.75" y="788.475" font-size="8.712" text-anchor="center">Новокурьяново</text><circle cx="84.09500000000003" cy="152.15" r="4" fill="#79cdcd" stroke="#79cdcd"/><text x="94.09500000000003" y="156.15" fill="#79cdcd" font-size="8.712" text-anchor="start">Можайская</text><circle cx="130.075" cy="134" r="6" fill="white" stroke="#79cdcd"/><text x="120.07499999999999" y="126" font-size="8.712" text-anchor="end">Терехово</text><circle cx="178.47500000000002" cy="134" r="6" fill="white" stroke="#79cdcd"/><text x="138.47500000000002" y="126" font-size="8.712" text-anchor="center">Н.Мнёвники</text><circle cx="226.875" cy="134" r="6" fill="white" stroke="#79cdcd"/><text x="236.875" y="148" font-size="8.712" text-anchor="start">Улица Н.Ополчения</text><circle cx="229.90000000000003" cy="221.725" r="3" fill="#79cdcd" stroke="#79cdcd"/><circle cx="193.60000000000002" cy="170.3" r="6" fill="white" stroke="#79cdcd"/><text x="183.60000000000002" y="162.3" font-size="8.712" text-anchor="end">Шелепиха</text><circle cx="302.5" cy="121.9" r="4" fill="#79cdcd" stroke="#79cdcd" transform="scale(1)"/><text x="292.5" y="125.9" fill="#79cdcd" font-size="8.712" text-anchor="end">Хорошёвская</text><circle cx="340.3125" cy="84.0875" r="6" fill="white" stroke="#79cdcd"/><text x="350.3125" y="88.0875" font-size="8.712" text-anchor="start">ЦСКА</text><circle cx="384.62874999999997" cy="39.77124999999998" r="4" fill="#79cdcd" stroke="#79cdcd"/><text x="394.62874999999997" y="43.77124999999998" fill="#79cdcd" font-size="8.712" text-anchor="start">Петровский Парк</text><circle cx="438.625" cy="6.950000000000017" r="4" fill="#79cdcd" stroke="#79cdcd"/><text x="398.625" y="-1.049999999999983" fill="#79cdcd" font-size="8.712" text-anchor="center">Н.Масловка</text><circle cx="562.65" cy="6.950000000000017" r="4" fill="#79cdcd" stroke="#79cdcd"/><text x="572.65" y="20.950000000000017" fill="#79cdcd" font-size="8.712" text-anchor="start">Шереметьевская</text><circle cx="668.525" cy="6.950000000000017" r="4" fill="#79cdcd" stroke="#79cdcd"/><text x="678.525" y="-1.049999999999983" fill="#79cdcd" font-size="8.712" text-anchor="start">Ржевская</text><circle cx="775.51925" cy="56.34825000000001" r="4" fill="#79cdcd" stroke="#79cdcd"/><text x="765.51925" y="60.34825000000001" fill="#79cdcd" font-size="8.712" text-anchor="end">Стромынка</text><circle cx="786.5" cy="197.525" r="4" fill="#79cdcd" stroke="#79cdcd"/><text x="796.5" y="201.525" fill="#79cdcd" font-size="8.712" text-anchor="start">Рубцовская</text><circle cx="842.85575" cy="260.324" r="6" fill="white" stroke="#79cdcd"/><text x="852.85575" y="264.324" font-size="8.712" text-anchor="start">Лефортово</text><circle cx="865.15" cy="345.75" r="4" fill="#79cdcd" stroke="#79cdcd"/><text x="875.15" y="349.75" fill="#79cdcd" font-size="8.712" text-anchor="start">Авиамоторная</text><circle cx="907.5" cy="388.1" r="4" fill="#79cdcd" stroke="#79cdcd"/><text x="917.5" y="392.1" fill="#79cdcd" font-size="8.712" text-anchor="start">Нижегородская улица</text><circle cx="871.2" cy="484.9" r="4" fill="#79cdcd" stroke="#79cdcd"/><circle cx="830.665" cy="539.3499999999999" r="6" fill="white" stroke="#79cdcd"/><text x="840.665" y="553.3499999999999" font-size="8.712" text-anchor="start">Южнопортовая</text><circle cx="783.475" cy="599.8499999999999" r="6" fill="white" stroke="#79cdcd"/><text x="793.475" y="603.8499999999999" font-size="8.712" text-anchor="start">Кленовый бульвар</text><circle cx="508.2" cy="657.325" r="6" fill="white" stroke="#79cdcd"/><text x="468.2" y="671.325" font-size="8.712" text-anchor="center">Зюзино</text><circle cx="399.3" cy="657.325" r="4" fill="#79cdcd" stroke="#79cdcd"/><text x="359.3" y="671.325" fill="#79cdcd" font-size="8.712" text-anchor="center">Воронцовская</text><circle cx="278.3" cy="596.825" r="6" fill="white" stroke="#79cdcd"/><text x="288.3" y="600.825" font-size="8.712" text-anchor="start">Улица Новаторов</text><circle cx="211.75" cy="560.37375" r="4" fill="#79cdcd" stroke="#79cdcd"/><circle cx="202.675" cy="430.45" r="4" fill="#79cdcd" stroke="#79cdcd"/><text x="212.675" y="434.45" fill="#79cdcd" font-size="8.712" text-anchor="start">Мичуринский проспект</text><circle cx="135.33850000000007" cy="363.1135" r="6" fill="white" stroke="#79cdcd"/><text x="125.33850000000007" y="367.1135" font-size="8.712" text-anchor="end">Аминьевское шоссе</text><circle cx="103.66675000000004" cy="331.44175" r="6" fill="white" stroke="#79cdcd"/><text x="93.66675000000004" y="335.44175" font-size="8.712" text-anchor="end">Давыдково</text><circle cx="287.375" cy="605.9" r="6" fill="white" stroke="#554d26"/><circle cx="266.2" cy="627.075" r="6" fill="white" stroke="#554d26"/><text x="276.2" y="631.075" font-size="8.712" text-anchor="start">Улица Академика Опарина</text><circle cx="248.05" cy="648.25" r="6" fill="white" stroke="#554d26"/><text x="258.05" y="652.25" font-size="8.712" text-anchor="start">Улица Генерала Тюленева</text><circle cx="226.875" cy="669.425" r="6" fill="white" stroke="#554d26"/><text x="236.875" y="673.425" font-size="8.712" text-anchor="start">Славянский мир</text><circle cx="207.21250000000003" cy="690.5999999999999" r="6" fill="white" stroke="#554d26"/><text x="217.21250000000003" y="694.5999999999999" font-size="8.712" text-anchor="start">Мамыри</text><circle cx="187.55" cy="711.775" r="6" fill="white" stroke="#554d26"/><text x="197.55" y="715.775" font-size="8.712" text-anchor="start">Коммунарка</text><circle cx="166.375" cy="732.95" r="6" fill="white" stroke="#554d26"/><text x="176.375" y="736.95" font-size="8.712" text-anchor="start">Столбово</text><circle cx="149.7375" cy="751.0999999999999" r="6" fill="white" stroke="#554d26"/><text x="159.7375" y="755.0999999999999" font-size="8.712" text-anchor="start">Сосенки</text><circle cx="133.10000000000002" cy="769.25" r="6" fill="white" stroke="#554d26"/><text x="143.10000000000002" y="773.25" font-size="8.712" text-anchor="start">Десна</text><circle cx="865.15" cy="345.75" r="3" fill="#de62be" stroke="#de62be"/><circle cx="907.5" cy="388.1" r="3" fill="#de62be" stroke="#de62be"/><circle cx="945.76625" cy="426.36625" r="6" fill="white" stroke="#de62be"/><text x="955.76625" y="430.36625" font-size="8.712" text-anchor="start">Стахановская улица</text><circle cx="958.925" cy="460.7" r="6" fill="white" stroke="#de62be"/><text x="968.925" y="464.7" font-size="8.712" text-anchor="start">Окская улица</text><circle cx="977.4077500000001" cy="531.45475" r="6" fill="white" stroke="#de62be"/><text x="967.4077500000001" y="535.45475" font-size="8.712" text-anchor="end">Юго-восточная улица</text><circle cx="1017.9124999999999" cy="575.65" r="4" fill="#de62be" stroke="#de62be"/><text x="1027.9125" y="579.65" fill="#de62be" font-size="8.712" text-anchor="start">Косино</text><circle cx="1043.625" cy="624.05" r="6" fill="white" stroke="#de62be"/><text x="1033.625" y="628.05" font-size="8.712" text-anchor="end">Улица Дмитриевского</text><circle cx="1043.625" cy="651.275" r="6" fill="white" stroke="#de62be"/><text x="1033.625" y="655.275" font-size="8.712" text-anchor="end">Лухмановская</text><circle cx="1043.625" cy="678.5" r="6" fill="white" stroke="#de62be"/><text x="1033.625" y="682.5" font-size="8.712" text-anchor="end">Некрасовка</text><circle cx="465.85" cy="-47.5" r="3" fill="#2c87c5" stroke="#2c87c5"/><circle cx="505.175" cy="-47.5" r="3" fill="#2c87c5" stroke="#2c87c5"/><circle cx="547.525" cy="-47.5" r="3" fill="#2c87c5" stroke="#2c87c5"/><circle cx="595.925" cy="-47.5" r="3" fill="#2c87c5" stroke="#2c87c5"/><circle cx="644.325" cy="-47.5" r="3" fill="#2c87c5" stroke="#2c87c5"/><circle cx="674.575" cy="-47.5" r="3" fill="#2c87c5" stroke="#2c87c5"/><circle cx="511.225" cy="-97.11000000000001" r="5" fill="white" stroke="#f76093"/><circle cx="453.75" cy="-86.82499999999999" r="5" fill="white" stroke="#f76093"/><circle cx="411.4" cy="-72.91000000000003" r="5" fill="white" stroke="#f76093"/><text x="421.4" y="-68.91000000000003" fill="gray" font-size="8.712" text-anchor="start">Лихоборы</text><circle cx="354.53" cy="-43.264999999999986" r="5" fill="white" stroke="#f76093"/><text x="364.53" y="-39.264999999999986" fill="gray" font-size="8.712" text-anchor="start">Коптево</text><circle cx="296.45000000000005" cy="2.7150000000000034" r="5" fill="white" stroke="#f76093"/><text x="306.45000000000005" y="6.715000000000003" fill="gray" font-size="8.712" text-anchor="start">Балтийская</text><circle cx="281.325" cy="18.444999999999993" r="5" fill="white" stroke="#f76093"/><text x="291.325" y="22.444999999999993" fill="gray" font-size="8.712" text-anchor="start">Стрешнево</text><circle cx="263.175" cy="40.224999999999994" r="5" fill="white" stroke="#f76093"/><text x="273.175" y="44.224999999999994" fill="gray" font-size="8.712" text-anchor="start">Панфиловская</text><circle cx="233.83249999999998" cy="85.6" r="5" fill="white" stroke="#f76093"/><text x="243.83249999999998" y="89.6" fill="gray" font-size="8.712" text-anchor="start">Зорге</text><circle cx="222.03500000000003" cy="109.80000000000001" r="5" fill="white" stroke="#f76093"/><text x="212.03500000000003" y="113.80000000000001" fill="gray" font-size="8.712" text-anchor="end">Хорошёво</text><circle cx="200.86" cy="170.3" r="5" fill="white" stroke="#f76093"/><text x="210.86" y="174.3" fill="gray" font-size="8.712" text-anchor="start">Шелепиха</text><circle cx="196.01999999999998" cy="194.5" r="5" fill="white" stroke="#f76093"/><text x="206.01999999999998" y="208.5" fill="gray" font-size="8.712" text-anchor="start">Деловой центр</text><circle cx="190.8775" cy="239.875" r="5" fill="white" stroke="#f76093"/><text x="200.8775" y="243.875" fill="gray" font-size="8.712" text-anchor="start">Кутузовская</text><circle cx="298.265" cy="509.1" r="5" fill="white" stroke="#f76093"/><text x="308.265" y="513.1" fill="gray" font-size="8.712" text-anchor="start">Лужники</text><circle cx="396.275" cy="576.255" r="5" fill="white" stroke="#f76093"/><text x="406.275" y="580.255" fill="gray" font-size="8.712" text-anchor="start">Площадь Гагарина</text><circle cx="502.15" cy="606.505" r="5" fill="white" stroke="#f76093"/><text x="512.15" y="598.505" fill="gray" font-size="8.712" text-anchor="start">Крымская</text><circle cx="635.25" cy="597.1275" r="5" fill="white" stroke="#f76093"/><text x="595.25" y="589.1275" fill="gray" font-size="8.712" text-anchor="center">Верхние Котлы</text><circle cx="695.75" cy="575.045" r="5" fill="white" stroke="#f76093"/><text x="685.75" y="579.045" fill="gray" font-size="8.712" text-anchor="end">ЗИЛ</text><circle cx="762.3" cy="533.905" r="5" fill="white" stroke="#f76093"/><circle cx="796.785" cy="503.04999999999995" r="5" fill="white" stroke="#f76093"/><circle cx="851.5374999999999" cy="430.45" r="5" fill="white" stroke="#f76093"/><text x="861.5374999999999" y="434.45" fill="gray" font-size="8.712" text-anchor="start">Угрешская</text><circle cx="866.9649999999999" cy="400.2" r="5" fill="white" stroke="#f76093"/><text x="876.9649999999999" y="404.2" fill="gray" font-size="8.712" text-anchor="start">Новохохловская</text><circle cx="881.7874999999999" cy="362.3875" r="5" fill="white" stroke="#f76093"/><text x="891.7874999999999" y="366.3875" fill="gray" font-size="8.712" text-anchor="start">Нижегородская</text><circle cx="890.2574999999999" cy="330.625" r="5" fill="white" stroke="#f76093"/><text x="900.2574999999999" y="334.625" fill="gray" font-size="8.712" text-anchor="start">Андроновка </text><circle cx="894.4925000000001" cy="306.425" r="5" fill="white" stroke="#f76093"/><text x="904.4925000000001" y="310.425" fill="gray" font-size="8.712" text-anchor="start">Шоссе Энтузиастов</text><circle cx="896.3075" cy="218.7" r="5" fill="white" stroke="#f76093"/><text x="906.3075" y="222.7" fill="gray" font-size="8.712" text-anchor="start">Соколиная гора</text><circle cx="867.2674999999999" cy="109.80000000000001" r="5" fill="white" stroke="#f76093"/><text x="857.2674999999999" y="113.80000000000001" fill="gray" font-size="8.712" text-anchor="end">Измайлово</text><circle cx="829.4549999999999" cy="45.065" r="5" fill="white" stroke="#f76093"/><text x="839.4549999999999" y="49.065" fill="gray" font-size="8.712" text-anchor="start">Локомотив</text><circle cx="808.28" cy="19.05000000000001" r="5" fill="white" stroke="#f76093"/><circle cx="770.77" cy="-17.25" r="5" fill="white" stroke="#f76093"/><text x="780.77" y="-13.25" fill="gray" font-size="8.712" text-anchor="start">Белокаменная</text><circle cx="727.815" cy="-47.5" r="5" fill="white" stroke="#f76093"/><text x="737.815" y="-43.5" fill="gray" font-size="8.712" text-anchor="start">Ростокино</text><circle cx="673.365" cy="-74.72499999999997" r="5" fill="white" stroke="#f76093"/><text x="683.365" y="-70.72499999999997" fill="gray" font-size="8.712" text-anchor="start">Ботанический сад</text><text x="261.075" y="-76.77499999999998" fill="#5555ff" font-size="8.712" text-anchor="start" transform="rotate(-90,251.075,-80.77499999999998)">Канал имени Москвы</text><text x="896.325" y="713.675" fill="#5555ff" font-size="8.712" text-anchor="start" transform="rotate(45,886.325,699.675)">Москва-река</text><text x="732.975" y="-30.474999999999966" fill="#5555ff" font-size="8.712" text-anchor="start" transform="rotate(45,722.975,-44.474999999999966)">Яуза</text><text x="446.775" y="-221.97499999999997" fill="gray" font-size="8.712" text-anchor="end">Шереметьево</text><text x="380.225" y="102.625" fill="gray" font-size="8.712" text-anchor="end">Белорусский</text><text x="85.625" y="646.2" fill="gray" font-size="8.712" text-anchor="start">Внуково</text><text x="277.625" y="332.525" fill="gray" font-size="8.712" text-anchor="center">Киевский</text><text x="708.775" y="443.525" fill="gray" font-size="8.712" text-anchor="start">Павелецкий</text><text x="658.775" y="810.475" fill="gray" font-size="8.712" text-anchor="center">Домодедово</text></g></svg>